<?xml version="1.0" encoding="UTF-8"?>
<svg id="Layer_1" xmlns="http://www.w3.org/2000/svg" viewBox="0 0 247.25 198.19">
  <defs>
    <style>
      .cls-1 {
        fill: #f9e834;
      }

      .cls-2 {
        fill: #f7e133;
      }

      .cls-3 {
        fill: #f4e733;
      }

      .cls-4 {
        fill: #fec730;
      }

      .cls-5 {
        font-size: 16px;
      }

      .cls-5, .cls-6 {
        font-family: Rockwell-ExtraBold, 'Rockwell Extra Bold';
        font-weight: 700;
      }

      .cls-7, .cls-6 {
        fill: #231f20;
      }

      .cls-8 {
        fill: #f0de36;
      }

      .cls-9 {
        fill: #fdfdfb;
      }

      .cls-10 {
        fill: #080a09;
      }

      .cls-11 {
        fill: #060807;
      }

      .cls-12 {
        fill: #ecda34;
      }

      .cls-13 {
        fill: #f7e634;
      }

      .cls-14 {
        fill: #f5e331;
      }

      .cls-15 {
        fill: #fdfdfc;
      }

      .cls-16 {
        fill: #f4e334;
      }

      .cls-17 {
        fill: #f3e033;
      }

      .cls-18 {
        fill: #f3e233;
      }

      .cls-19 {
        fill: #f2dd35;
      }

      .cls-20 {
        fill: #fae735;
      }

      .cls-21 {
        fill: #fbe933;
      }

      .cls-22 {
        fill: #f3e035;
      }

      .cls-6 {
        font-size: 31px;
      }

      .cls-23 {
        fill: #f7ed43;
      }

      .cls-24 {
        fill: #f7e832;
      }

      .cls-25 {
        fill: #f0de35;
      }

      .cls-26 {
        letter-spacing: -.02em;
      }

      .cls-26, .cls-27, .cls-28 {
        font-family: Rockwell, Rockwell;
        font-size: 14.91px;
      }

      .cls-29 {
        fill: #fdfefc;
      }

      .cls-30 {
        fill: #f1de35;
      }

      .cls-31 {
        fill: #f5e439;
      }

      .cls-28 {
        letter-spacing: -.04em;
      }
    </style>
  </defs>
  <text class="cls-7" transform="translate(.12 193.87)"><tspan class="cls-27" x="0" y="0">A FREE community </tspan><tspan class="cls-28" x="133.76" y="0">e</tspan><tspan class="cls-26" x="141.78" y="0">v</tspan><tspan class="cls-27" x="149.49" y="0">ents </tspan><tspan class="cls-5" x="181.63" y="0">Board!</tspan></text>
  <g>
    <path class="cls-29" d="M1.95,0h145.85v178.84H1.95V0ZM35.06,26.51c-.16.08-.22.13-.29.15-10.54,3.16-18.7,9.25-24.3,18.64-4.7,7.87-6.58,16.29-5.18,25.26,1.36,8.71,5.77,15.8,13,21.1.61.45.58.74.3,1.28-3.07,5.88-4.91,12.1-5.69,18.68-.69,5.8-.57,11.56.85,17.17,4,15.76,13.64,27.1,28.67,33.94,7.49,3.41,15.36,4.89,23.64,3.72.91-.13,1.79-.49,2.74.49,2.43,2.48,5.08,4.76,7.64,7.12.51.47,1.09.85,1.74,1.1,1.14.44,2.21.35,3.14-.47.91-.8,1.18-1.77.92-2.98-.72-3.35-1.44-6.71-1.31-10.17.02-.53.11-.88.62-1.21,4.27-2.72,7.78-6.22,10.76-10.24,4.38-5.91,7.26-12.44,8.36-19.7.2-1.33.45-2.66.68-4.02,6.88,2,13.58,2.1,20.14-.65,4.14-1.74,7.59-4.32,9.39-8.52,2.62-6.1.07-13.9-5.81-18.12-1.72-1.23-3.56-2.26-5.6-3.17,1.08-.6,2.02-1.1,2.95-1.63,7.19-4.12,13.4-9.24,17.44-16.56,3.53-6.39,5.29-13.2,4.09-20.41-1.64-9.91-9.11-15.78-19.01-16.11-5.45-.18-10.54,1.37-15.38,3.72-8.78,4.27-15.69,10.79-22.09,17.88-1.71,1.9-3.35,3.85-5,5.75,3.29-17.74-1.96-31.59-18.9-40.33.29-.66.62-1.42.98-2.17,1.28-2.75,2.9-5.27,5.16-7.38,1.87-1.75,4.01-2.69,6.62-2.55,2.01.11,3.95-.13,5.71-1.19,1.88-1.13,2.71-2.84,2.57-4.91-.17-2.35-1.57-3.87-3.82-4.49-2.83-.77-5.37.1-7.77,1.44-4.01,2.25-7.01,5.52-9.53,9.26-2.18,3.22-3.79,6.73-5.16,10.34-5.92-1.45-11.85-1.86-17.81-1.04-1.24-5.04-3.2-9.65-6.28-13.75-2.27-3.01-4.87-5.67-8.42-7.24-1.49-.66-3.03-1.1-4.69-1.12-2.06-.02-3.79.5-4.65,2.51-.89,2.09-.51,4.04,1.01,5.73,1.86,2.07,4.39,2.43,7.02,2.44,1.89,0,3.45.76,4.78,2.01,3.03,2.85,4.48,6.54,5.78,10.4h0Z"/>
    <path class="cls-11" d="M35.06,26.51c-1.3-3.86-2.75-7.55-5.78-10.4-1.33-1.25-2.88-2.01-4.78-2.01-2.63,0-5.15-.37-7.02-2.44-1.52-1.68-1.9-3.64-1.01-5.73.86-2.01,2.59-2.54,4.65-2.51,1.67.02,3.2.46,4.69,1.12,3.56,1.57,6.16,4.24,8.42,7.24,3.09,4.1,5.04,8.7,6.28,13.75,5.96-.82,11.89-.41,17.81,1.04,1.38-3.61,2.98-7.12,5.16-10.34,2.53-3.73,5.52-7.01,9.53-9.26,2.4-1.34,4.94-2.22,7.77-1.44,2.26.62,3.66,2.14,3.82,4.49.15,2.07-.68,3.78-2.57,4.91-1.76,1.06-3.7,1.29-5.71,1.19-2.61-.14-4.76.8-6.62,2.55-2.26,2.11-3.87,4.63-5.16,7.38-.35.75-.68,1.51-.98,2.17,16.94,8.74,22.18,22.59,18.9,40.33,1.65-1.9,3.29-3.85,5-5.75,6.4-7.1,13.31-13.61,22.09-17.88,4.84-2.35,9.93-3.9,15.38-3.72,9.9.33,17.37,6.21,19.01,16.11,1.2,7.22-.56,14.01-4.09,20.41-4.04,7.32-10.25,12.44-17.44,16.56-.93.53-1.87,1.03-2.95,1.63,2.04.92,3.88,1.94,5.6,3.17,5.88,4.22,8.43,12.02,5.81,18.12-1.81,4.2-5.25,6.79-9.39,8.52-6.57,2.75-13.27,2.65-20.14.65-.23,1.36-.48,2.69-.68,4.02-1.1,7.26-3.98,13.79-8.36,19.7-2.98,4.02-6.5,7.52-10.76,10.24-.51.33-.6.68-.62,1.21-.13,3.46.59,6.82,1.31,10.17.26,1.22,0,2.18-.92,2.98-.93.82-2.01.91-3.14.47-.65-.25-1.23-.63-1.74-1.1-2.57-2.36-5.21-4.63-7.64-7.12-.95-.97-1.83-.61-2.74-.49-8.28,1.17-16.15-.31-23.64-3.72-15.03-6.84-24.67-18.18-28.67-33.94-1.43-5.61-1.54-11.37-.85-17.17.78-6.58,2.62-12.8,5.69-18.68.28-.54.31-.83-.3-1.28-7.24-5.3-11.64-12.39-13-21.1-1.4-8.97.48-17.39,5.18-25.26,5.61-9.38,13.77-15.48,24.3-18.64.07-.02.13-.07.29-.15h0ZM67.1,82.83l.04-.05c1.39-1.12,2.51-2.48,3.51-3.93.25-.38.5-.76.75-1.14l-.02.02c.31-.34.61-.7.72-1.17l-.02.02c.33-.34.57-.72.7-1.18h0c.27-.24.43-.55.49-.91v.02c1.1-1.96,1.92-4.02,2.35-6.23l-.02.02c.7-1.39.8-2.92,1.1-4.4.38-2.06.33-4.13.24-6.2-.13-2.27-.51-4.49-1.2-6.66-.52-1.72-1.21-3.36-2.14-4.9v-.06c-.2-.28-.38-.56-.57-.84l.02.02c-.16-.44-.37-.85-.74-1.16l.02.02c-.08-.29-.21-.55-.49-.71l.02.02c-.1-.28-.23-.54-.5-.7v.02c-.07-.09-.15-.18-.23-.27l.02.02c-.11-.24-.2-.51-.5-.59-1.71-1.43-3.05-3.22-4.89-4.53-1.48-1.06-3.31-1.4-4.79-2.44-.27-.37-.69-.43-1.1-.51l.03.02c-.4-.32-.9-.38-1.36-.54l-.04.03c-.77-.24-1.54-.48-2.31-.72l-.03.03c-2.68-.88-5.48-1.04-8.27-1.24-1.56,0-3.11,0-4.67,0-1.37-.03-2.61.66-3.98.64-.05-.06-.11-.16-.14-.16-2.68.54-5.36,1.09-7.77,2.45-.26.15-.49.36-.77.45-2.68.91-4.99,2.41-7.07,4.27-.27.21-.53.42-.8.64l-.07.06c-.27.26-.53.53-.8.8l-.2.19c-.09.09-.17.18-.26.27l.03-.03-.25.26.02-.02c-.09.09-.17.17-.26.25l.02-.02-.34.31s-.07.05-.08.1l-.04.06c-1.06,1.11-2.08,2.27-2.84,3.62-.43.41-.75.89-.96,1.43l.02-.02c-.27.17-.37.44-.45.72h0c-.21.08-.23.27-.26.46l.02-.02c-1.55,2.37-2.7,4.91-3.47,7.62-.08.17-.18.34-.22.53-1.11,4.52-1.63,9.07-.71,13.68.56,2.79,1.3,5.52,2.95,7.93l-.02-.02c.05.18.08.37.29.45l-.02-.02c.04.18.08.37.28.46h0c.11.17.23.35.34.54l.03.04.81,1.05v-.02c.06.09.14.18.22.28l-.03-.03c.11.17.23.35.35.52l.07.08c.18.19.36.38.54.57l-.02-.02c.08.09.16.19.23.28l-.03-.03c.11.13.22.26.32.39.1.49.65.46.91.79,1.8,2.23,4.16,3.74,6.72,4.99.43.37.94.6,1.49.74l-.03-.03c.11.21.33.18.52.23l-.03-.02c.34.31.76.41,1.18.51l-.03-.03c1.77.86,3.66,1.29,5.58,1.63.95.28,1.92.5,2.93.38.28.23.62.23.97.26,3.86.36,7.68.11,11.46-.7,3.82-.82,7.49-2.02,10.82-4.1l-.02.02c.19-.04.4-.03.48-.27l-.02.02c.46-.14.85-.38,1.18-.71h-.02c.1-.06.2-.13.3-.2l-.02.03c.09-.04.18-.08.26-.12.05,0,.08-.03.11-.07.34-.26.69-.51,1.03-.76l-.02.02c.39-.14.7-.39.95-.71l-.02.02c.1-.07.19-.14.29-.21h0c.09-.05.17-.11.26-.18h.03c.2-.2.41-.38.61-.56l-.02.02c.34-.28.69-.55,1.03-.83l.03-.03.19-.15c.06,0,.1-.04.11-.1h0ZM78.66,85.73c-.08-.09-.17-.17-.25-.26l.02.02c-.16-.16-.32-.31-.49-.47l.02.02c-.08-.09-.17-.17-.25-.26l.02.02-.49-.48c-.15-.14-.29-.29-.44-.43-.09-.08-.18-.17-.27-.25h.02c-.11-.1-.21-.21-.32-.33l-.06-.06c-.23-.34-.47-.4-.7,0-.05.02-.08.06-.08.11l-.04.06c-1.9,2.37-3.94,4.6-6.42,6.41-2.7,1.98-5.48,3.84-8.59,5.17-1.19.5-2.37,1-3.56,1.5l.03-.02c-1.57.47-3.14.94-4.71,1.41-.62.17-1.23.34-1.85.52-1.69-.22-3.3.32-4.96.44-2.88.21-5.75-.05-8.62-.05l.03.02c-.99-.37-2.03-.41-3.07-.47l.02.02c-1.84-.69-3.74-1.15-5.64-1.63l.02.02c-.54-.49-1.26-.58-1.9-.85-.44-.12-.92-.17-1.32-.37-.51-.26-.8-.14-1.01.33-1.47,3.35-2.94,6.69-3.79,10.28.4.2.74.36,1.08.53.3.19.6.38.9.57l.07.02.3.12-.02-.02c.09.23.3.22.49.26l-.03-.02c.09.23.31.21.5.25l-.03-.02c.09.23.32.2.5.24l-.02-.02c.49.38,1.06.57,1.66.71l-.02-.02c.47.44,1.09.51,1.68.64.99.31,1.97.66,2.97.93,3.11.84,6.31,1.11,9.51,1.36,1.86.14,3.76.09,5.59-.42.62-.02,1.24-.03,1.86-.05.64-.13,1.31-.06,1.9-.41l-.02.02c2.35-.1,4.56-.83,6.8-1.44.97-.3,1.92-.78,2.86-1.03,2.15-.57,4.09-1.59,6.08-2.46,3.28-1.43,6.18-3.53,8.98-5.72,3.31-2.59,6.3-5.49,8.74-8.9.26-.36.74-.8.35-1.18-.89-.85-1.33-2.07-2.39-2.77l-.04-.06c-.01-.05-.04-.08-.1-.09-.06-.06-.11-.11-.17-.16l-.05-.07c-.21-.21-.42-.42-.63-.63l-.07-.07c-.11-.1-.23-.2-.34-.3v.02c-.07-.09-.15-.17-.24-.25l.02.02h0ZM86.65,123.45l-.03.03c.09-.09.18-.17.26-.26l-.02.03c.16-.16.32-.32.48-.48l-.02.02c.12-.04.23-.1.19-.26,2.16-2.1,4.2-4.3,5.94-6.77.68-.96,1.12-1.94.84-3.13-.43-2.6-1.1-5.13-2.09-7.58-.4-1-.81-1.99-1.27-3.13-.34.44-.56.74-.79,1.04-2.38,3.08-4.67,6.21-7.74,8.72-4.04,3.31-8.22,6.41-13,8.62-2.46,1.14-4.76,2.64-7.45,3.3-2.78.88-5.56,1.79-8.42,2.4-2.71.58-5.43,1.06-8.21,1.15-2.2.27-4.4.13-6.61,0-1.31-.08-2.61-.48-3.94-.24-.06-.03-.13-.04-.2-.04-.08-.22-.29-.21-.47-.24-3.67-.71-7.25-1.71-10.72-3.09h-.02c-.33-.13-.65-.27-.98-.4l.02.02c-.1-.22-.32-.19-.51-.23l.03.02c-.09-.23-.31-.21-.49-.25l.03.02c-.31-.17-.62-.35-.93-.52l.02.02c-.21-.22-.44-.39-.76-.43l.02.02c-.1-.2-.27-.32-.49-.37-.71.04-.49.57-.47.93.07,1.61.44,3.19.76,4.76.54,2.05,1.05,4.11,1.99,6.02l-.03-.02c.04.14.09.28.13.42.1.26.12.56.38.74h-.01c.19.4.56.58.98.68l-.02-.02c.08.23.3.22.49.27l-.03-.03c.09.22.3.22.49.27l-.03-.03c.41.37.91.56,1.44.71l-.03-.02c.1.22.32.19.51.23l-.03-.02c.49.37,1.07.55,1.66.72l-.03-.02c.11.21.31.2.5.2,1.2.6,2.48.98,3.77,1.34,1.83.63,3.75.92,5.63,1.38,1.73.03,3.41.62,5.16.46.73.01,1.46.08,2.18.03,1.08-.07,2.18.25,3.23-.21.94-.02,1.87-.03,2.8-.05,1.48-.23,2.97-.46,4.45-.68,1.04-.21,2.1-.37,3.12-.66,2.53-.7,5.11-1.28,7.46-2.51l-.02.02c.25-.07.57.06.74-.24l-.03.02c.21-.04.45-.01.58-.24.41-.64,1.27-.27,1.76-.74.85-.24,1.64-.62,2.38-1.11l-.02.02c.19-.04.39-.05.49-.26h-.02c.36-.06.69-.19.95-.46h-.02c.31-.03.56-.18.77-.39l-.02.02c.16-.09.32-.18.48-.27l-.03.02c.19-.05.39-.07.47-.28l-.02.02c.46-.13.87-.35,1.21-.69l-.03.02c.19-.05.39-.07.47-.28l-.02.02c.94-.43,1.81-.96,2.6-1.62l-.02.02c.3-.08.57-.2.72-.48l-.02.02c.11-.06.21-.12.31-.18v.03s.41-.32.41-.32l-.02.02c.11-.08.22-.16.33-.24,1.66-.99,3.17-2.17,4.59-3.47.16-.15.33-.3.49-.45h-.02c.09-.07.17-.15.26-.24l-.02.02c.16-.16.33-.31.49-.47l-.02.02c.09-.09.18-.17.27-.25l-.03.03c.09-.09.18-.17.27-.26l-.03.03.27-.26h0ZM90.1,136.73c-.1.09-.19.17-.29.26-.19.13-.39.25-.56.4-5.82,5.13-12.38,9.13-19.53,12.23-.2-.32-.43-.03-.58.03-2.66.98-5.39,1.74-8.12,2.48-1.32.67-2.84.54-4.21,1.01-1.32-.17-2.63.09-3.95.16-4.99.23-9.93-.08-14.79-1.26-.41-.12-.8-.15-1.45.18,3.61,2.77,7.32,4.91,11.52,6.19.13.08.25.18.38.22,5.03,1.53,10.15,2.5,15.44,1.83,3.14-.4,6.21-1.08,9.08-2.47l-.02.02c.17-.07.34-.14.52-.21l-.02.02c.32-.14.63-.28.95-.41h.07c.61-.33,1.27-.55,1.79-1.02l-.02.02c.46-.14.87-.36,1.19-.71l-.02.02c.31-.05.56-.2.73-.47l-.02.02c.1-.06.2-.12.3-.18h0c.13-.1.27-.2.4-.31l-.02.02c.26-.18.53-.36.79-.53.04-.01.07-.04.09-.08l.34-.33c.47-.14.76-.51,1.1-.82,2.91-2.58,5.48-5.43,7.52-8.72.28-.2.46-.46.53-.79l-.02.02c.19-.27.37-.53.55-.8l.06-.1c.37-.68.74-1.36,1.11-2.04v-.04c.35-.6.7-1.2.87-1.89l-.02.02c1.01-1.85,1.56-3.87,2.11-5.91-.33.41-.66.82-.99,1.23-.24.24-.49.49-.73.73-.15.14-.29.29-.44.43-.09.09-.17.17-.26.26l.02-.02c-.16.16-.32.32-.48.48h.01s-.49.46-.49.46l.02-.02c-.09.09-.17.17-.26.25l.02-.02c-.09.08-.18.17-.27.25l.03-.03h0ZM81.36,79.56c.19.2.35.37.51.53,4.43,4.57,8.62,9.33,11.89,14.79.43.72.9.87,1.66.86,3.99-.06,7.83-.91,11.64-1.96,9.32-2.59,17.7-6.78,23.94-14.25,5.05-6.04,7.79-12.95,6.68-20.89-.66-4.71-3.14-8.3-7.91-9.97-4.28-1.5-8.55-.98-12.79.22-6.87,1.96-12.44,5.99-17.6,10.66-3.62,3.27-7,6.77-10.19,10.45-2.69,3.11-5.32,6.26-7.82,9.56h0ZM97.43,101.89c1.23,2.8,2.07,5.62,2.69,8.5.63,2.9,1.24,5.81,1.28,8.79.01.72.41,1.04,1.06,1.25,3.17,1.03,6.43,1.34,9.76,1.18,3.3-.16,6.39-1.02,9.16-2.79,4.66-2.98,5.59-8.01,2.36-12.43-2.5-3.43-6.08-5.2-10.15-6.14-1.54-.36-3.02-.8-4.73-.31-3.67,1.06-7.48,1.61-11.45,1.95h0Z"/>
    <path class="cls-4" d="M25.52,88.75c-2.56-1.25-4.92-2.76-6.72-4.99-.26-.33-.82-.3-.91-.79-.02-.2-.05-.39-.32-.39l.03.03c0-.16-.08-.25-.23-.28l.02.02c.02-.37,0-.72-.54-.57l-.07-.08c.18-.36-.06-.46-.35-.52l.03.03c-.08-.09-.15-.18-.23-.28v.02c-.09-.47-.06-1.04-.79-1.05l-.03-.04c.19-.37.03-.51-.34-.54h0c0-.19-.03-.39-.28-.45l.02.02c.02-.23,0-.42-.29-.45l.02.02c-.04-.86-.51-1.58-.86-2.34-1.31-2.81-1.95-5.77-2.11-8.83-.2-3.71.26-7.37,1.17-10.97.95-2.28,1.69-4.66,3.08-6.74.18-.26.23-.56.18-.88l-.02.02c.24-.07.27-.26.26-.47h0c.52,0,.5-.35.45-.71l-.02.02c.67-.26.93-.77.96-1.43.76-1.35,1.77-2.5,2.84-3.62.05.03.1.05.15.08-.04-.05-.07-.09-.11-.14,0-.04.04-.08.08-.1.34.13.33-.11.34-.32l-.02.02c.09-.09.17-.17.26-.25l-.02.02c.08-.09.17-.17.25-.26,0,0-.03.03-.02.03.09-.09.17-.18.26-.27l.2-.19c.49-.05.9-.18.8-.79,0,0,.07-.06.07-.06.56.14.67-.26.8-.64,2.08-1.86,4.39-3.36,7.07-4.27.28-.09.51-.3.77-.45,2.64-.77,5.27-1.53,7.91-2.3,1.36.02,2.61-.67,3.98-.64,1.54.43,3.12.08,4.68.19.26.08.51.23.77.22,1.98-.07,3.89.38,5.81.72.56.1,1.11.37,1.69.12l.03-.03c.63.68,1.42.86,2.31.72l.04-.03c.23.73.83.57,1.36.54,0,0-.03-.02-.03-.02.23.46.64.52,1.1.51,1.47,1.03,3.3,1.38,4.79,2.44,1.84,1.31,3.18,3.11,4.89,4.53-.02.35.03.64.5.59l-.02-.02c.08.09.16.18.23.27v-.02c-.03.36.11.6.49.7l-.02-.02c-.03.37.11.61.49.71l-.02-.02c.05.51.16.97.74,1.16l-.02-.02c-.03.41-.12.87.55.84v.06c.33,1.77,1.3,3.28,2,4.91.39,2.22.77,4.44,1.16,6.66.13,2.08-.2,4.14-.23,6.21-.45,1.44-.86,2.88-.92,4.4l.02-.02c-.94,2.02-1.78,4.08-2.37,6.23v-.02c-.47.14-.51.52-.48.93h0c-.52.22-.79.58-.7,1.17l.02-.02c-.55.2-.81.58-.72,1.17l.02-.02c-.45.26-.92.49-.75,1.14-1,1.46-2.12,2.81-3.51,3.93-.04-.03-.09-.06-.13-.09.03.05.06.09.09.14,0,.06-.04.09-.11.1-.18-.09-.23-.02-.19.15l-.03.03c-.61-.04-.81.4-1.03.83l.02-.02c-.38,0-.7.05-.61.55h-.03c-.18-.04-.26.03-.26.2h0c-.16-.03-.26.04-.29.19l.02-.02c-.53-.04-.81.25-.95.71l.02-.02c-.48.07-1.07.02-1.03.76-.02.04-.06.06-.11.07-.16-.11-.23-.03-.26.12l.02-.03c-.1.07-.2.14-.3.21h.02c-.59-.09-.98.16-1.18.7l.02-.02c-.22-.01-.41.01-.48.27l.02-.02c-.68-.18-1.07.37-1.58.6-5.26,2.44-10.73,4.02-16.62,3.95-1.69-.02-3.37-.01-5.06-.02-1.01.12-1.97-.1-2.93-.38.04-.06.08-.12.11-.18,0-.01-.03-.07-.05-.07-1.3-.33-2.6-.64-3.89-.98-.58-.16-1.1-.59-1.76-.39l.03.03c-.24-.51-.7-.54-1.18-.51l.03.02c-.09-.26-.29-.27-.52-.23l.03.03c-.34-.54-.82-.82-1.49-.74h0ZM29.83,50.86c-.11-.08-.21-.17-.32-.25-1.05-.76-2.16-.65-3.29-.23-.12.07-.23.14-.35.22h.02c-.21,0-.41.02-.46.27l.03-.03c-.09.09-.18.17-.28.26-.07.06-.13.13-.2.19-.09.09-.18.18-.26.26l.03-.03c-.28.08-.5.19-.37.54l-.02.03c-.34-.07-.34.15-.32.38l.02-.03c-.26.06-.29.25-.28.47l.02-.02c-.25.08-.27.27-.25.49l.02-.02c-.54.12-.55.61-.65.99-.49,1.78-.52,3.59-.09,5.37.18.73.27,1.59,1.21,1.89.15.14.29.28.44.43-.03.47.28.52.65.5.63.35,1.21.61,2,.31,2.13-.81,3.5-2.21,3.94-4.44.12-.08.33-.13.36-.23.48-1.75.46-3.5-.04-5.24-.06-.21-.18-.43-.47-.42h0c.27-.82-.3-1.13-.88-1.44l.03.03c-.09-.08-.18-.17-.27-.25l.04.03h0ZM29.09,71.56c-.07-.1-.14-.2-.21-.29l.02.02c.01-.22-.02-.41-.29-.45l.02.02c-.06-.53-.06-1.1-.77-1.25-.04-.02-.06-.05-.07-.09.08-.77-.59-.78-1.01-.76-.71.03-1.52.07-1.8.96l.03-.03c-.61.15-.82.56-.75,1.15-.15.84.23,1.55.6,2.26,1.41,2.73,3.59,4.67,6.41,5.94.84.38,1.55,1.13,2.6.99.08.06.17.12.26.18l-.02-.02c.29.37.74.4,1.15.48,2.77.51,5.51.3,8.17-.56,1.2-.39,2.44-.77,3.32-1.76l-.02.02c.36-.05.8,0,.8-.56l.08-.06c.39.24.52.05.54-.31h-.01c.39.05.64-.13.75-.5,1.07-.58,1.62-1.6,2.15-2.59.5-.93.23-2.22-.5-2.79-.92-.72-1.7-.45-2.62.15-.84.55-1.47,1.28-2.24,1.88-.38-.03-.66.09-.76.49l.02-.02c-.37-.08-.65.12-.98.26-3.37,1.44-6.79,1.76-10.27.33-.56-.23-1.09-.62-1.75-.57l.02.02c-.08-.51-.46-.54-.87-.53-.56-.55-1.12-1.11-1.68-1.66-.01-.2-.07-.35-.31-.35l.02.02h0ZM48.67,55.19c-.27.08-.28.27-.25.5l.03-.03c-.7.53-.74,1.3-.77,2.07,0,.07-.01.14-.04.2-.44,1.12-.12,2.29-.18,3.43-.02.37.11.75.54.91.32.54.56,1.13,1,1.61,1.08,1.2,1.84,1.44,3.14.94.45.41.55.03.67-.29l-.02.02c.38.05.74.07.73-.46l-.02.02c.35.02.51-.14.5-.48.07-.07.13-.13.2-.2.08-.09.17-.18.25-.28l-.03.03c.4-.08.55-.33.49-.71l-.02.03c.26-.06.3-.25.28-.47l-.02.02c.91-.5.87-1.46,1.07-2.27.49-1.97.62-3.94-.56-5.77-.1-.07-.19-.13-.29-.2l.02.02c.03-.38-.09-.65-.53-.68l.03.03c-.02-.42-.3-.54-.67-.53h.02c-.06-.12-.16-.19-.32-.16l.02.02c-.94-.96-2.42-.78-3.41.41l.03-.03c-.09.08-.19.17-.28.25l-.21.19c-.35,0-.51.17-.49.51-.05.07-.1.13-.14.2-.42.07-.59.31-.53.72l.03-.03c-.27.06-.3.26-.27.48l.02-.03h0Z"/>
    <path class="cls-15" d="M81.36,79.56c2.5-3.3,5.13-6.45,7.82-9.56,3.18-3.68,6.57-7.17,10.19-10.45,5.16-4.67,10.73-8.71,17.6-10.66,4.24-1.21,8.51-1.72,12.79-.22,4.78,1.67,7.25,5.26,7.91,9.97,1.11,7.94-1.63,14.85-6.68,20.89-6.25,7.47-14.63,11.66-23.94,14.25-3.81,1.06-7.65,1.9-11.64,1.96-.76.01-1.23-.14-1.66-.86-3.27-5.46-7.46-10.22-11.89-14.79-.16-.16-.31-.33-.51-.53h0Z"/>
    <path class="cls-4" d="M34.58,126.88c.07,0,.14.01.2.04.18.07.35.16.53.2,3.32.57,6.67.48,10.02.46.73-.07,1.47-.16,2.19-.25,2.02-.26,4.09-.35,6.02-1.11,2.45-.25,4.72-1.17,7.06-1.83.51-.14,1.06-.26,1.36-.78,2.69-.66,4.99-2.16,7.45-3.3,4.78-2.2,8.96-5.31,13-8.62,3.07-2.52,5.36-5.65,7.74-8.72.23-.29.45-.6.79-1.04.46,1.14.87,2.14,1.27,3.13-.34.29-.04.58.04.83.66,2.03,1.24,4.08,1.62,6.18.05.29.08.53.43.57.28,1.19-.16,2.17-.84,3.13-1.74,2.47-3.78,4.67-5.94,6.77-.06.09-.13.17-.19.26l.02-.02c-.35-.02-.51.14-.48.48l.02-.03c-.09.09-.18.17-.26.26l.03-.03-.27.26.03-.03c-.09.09-.18.17-.27.26l.03-.03c-.09.09-.18.17-.27.25l.02-.02c-.34-.02-.5.14-.49.47l.02-.02c-.09.08-.17.17-.26.25h.02c-.25.04-.68-.08-.49.44-1.42,1.3-2.93,2.48-4.59,3.47-.11.08-.22.16-.33.24l.02-.02c-.23,0-.43.03-.42.32,0,0,.01-.03.01-.03-.16-.03-.26.04-.31.19l.02-.02c-.38-.03-.62.11-.72.48l.02-.02c-1.03.29-1.97.72-2.6,1.62l.02-.02c-.22,0-.42.02-.47.28l.03-.02c-.55,0-.99.15-1.21.69l.02-.02c-.23-.02-.42.01-.47.28,0,0,.03-.02.02-.02-.24-.04-.44-.03-.48.27l.02-.02c-.4-.12-.64.05-.77.4h.02c-.42-.05-.8,0-.95.47h.02c-.21-.02-.41,0-.49.24l.02-.02c-.93.09-1.75.39-2.37,1.11-.49.47-1.34.11-1.76.74-.24-.02-.47-.03-.58.24l.03-.02c-.28-.02-.57-.09-.74.24l.02-.02c-3.55.91-6.99,2.18-10.58,2.97-1.4-.06-2.72.48-4.1.49-.22,0-.31.2-.35.39-.94.02-1.87.03-2.8.05-1.8,0-3.6,0-5.4,0-1.7-.4-3.47-.24-5.16-.69-1.88-.38-3.75-.77-5.63-1.15-1.12-.55-2.3-.93-3.53-1.16-.19-.29-.47-.21-.74-.19l.03.02c-.34-.71-1.02-.66-1.66-.72,0,0,.03.02.03.02-.09-.25-.29-.27-.51-.23l.03.02c-.26-.65-.8-.77-1.44-.71l.03.03c-.06-.27-.26-.3-.49-.27l.03.03c-.07-.26-.26-.28-.49-.27l.02.02c-.18-.43-.45-.74-.98-.69h.01c.04-.26.09-.54-.2-.72,0-.21-.05-.39-.31-.43l.03.02c-.01-1.56-.93-2.87-1.24-4.36-.12-.58-.01-1.33-.76-1.66-.31-1.58-.69-3.15-.76-4.76-.01-.36-.24-.89.47-.93.02.31.21.4.49.37l-.02-.02c.11.38.36.54.76.43l-.02-.02c.08.56.49.56.93.52l-.03-.02c.08.25.27.27.49.25l-.03-.02c.09.25.28.27.51.23l-.02-.02c.15.54.51.6.98.4h.02c.03.51.5.55.83.66,1.78.61,3.57,1.25,5.39,1.73,1.63.43,3.25,1,4.98.93h0Z"/>
    <path class="cls-4" d="M60.33,95.01c3.11-1.33,5.89-3.19,8.59-5.17,2.47-1.81,4.52-4.04,6.42-6.41.05.02.1.05.15.07-.04-.04-.07-.09-.11-.13,0-.06.03-.09.08-.11.23.14.47.14.7,0l.06.06c-.14.33.11.32.32.34h-.02c.09.07.18.15.27.23.15.14.29.29.44.43,0,.33.15.5.49.48l-.02-.02c.08.09.17.17.25.26l-.02-.02c-.01.33.15.49.49.47l-.02-.02c.08.09.17.17.25.26l-.02-.02c.08.09.17.17.25.25v-.02c0,.2,0,.44.33.3l.07.07c-.09.5.13.7.63.63l.05.07c-.08.19-.02.24.17.16.05.01.08.04.1.09-.04.05-.07.09-.11.14.05-.03.1-.05.15-.08,1.06.69,1.5,1.91,2.39,2.77.4.38-.09.83-.35,1.18-2.45,3.41-5.43,6.31-8.74,8.9-2.81,2.19-5.7,4.3-8.98,5.72-1.99.86-3.93,1.89-6.08,2.46-.94.25-1.89.72-2.86,1.03-2.35.1-4.55.86-6.8,1.44l.02-.02c-.63.15-1.42-.43-1.9.41-.62.02-1.24.03-1.86.05-6.13.18-12.19-.19-18.07-2.08-.53-.27-1.04-.57-1.68-.44l.02.02c-.35-.68-1.02-.65-1.66-.71l.02.02c-.09-.24-.29-.25-.5-.24l.03.02c-.08-.25-.28-.27-.5-.25l.03.02c-.08-.25-.27-.27-.49-.26l.02.02c-.06-.14-.15-.2-.3-.12l-.07-.02c-.04-.58-.5-.53-.9-.57-.34-.17-.68-.34-1.08-.53.85-3.59,2.32-6.94,3.79-10.28.21-.48.5-.59,1.01-.33.4.2.88.25,1.32.37.39.8,1.18.75,1.9.85l-.02-.02c1.74,1.03,3.65,1.46,5.64,1.63l-.02-.02c.96.54,2.01.52,3.07.47,0,0-.03-.02-.02-.02.14.23.36.24.6.27,2.23.3,4.49.34,6.72.19,2.1-.14,4.23-.21,6.26-.85.62-.17,1.23-.34,1.85-.52,1.69-.08,3.29-.47,4.71-1.41l-.03.02c1.35-.11,2.58-.51,3.56-1.5h0Z"/>
    <path class="cls-9" d="M97.43,101.89c3.97-.34,7.77-.89,11.45-1.95,1.7-.49,3.19-.05,4.73.31,4.06.94,7.64,2.71,10.15,6.14,3.23,4.42,2.3,9.45-2.36,12.43-2.76,1.77-5.86,2.63-9.16,2.79-3.32.16-6.58-.15-9.76-1.18-.65-.21-1.05-.53-1.06-1.25-.04-2.98-.65-5.89-1.28-8.79-.62-2.88-1.47-5.7-2.69-8.5Z"/>
    <path class="cls-4" d="M69.72,149.61c7.15-3.1,13.71-7.09,19.53-12.23.17-.15.37-.27.56-.4.1-.09.19-.17.29-.26l-.03.03c.09-.08.18-.17.27-.25l-.02.02c.09-.09.17-.17.26-.25l-.02.02c.34.02.49-.14.49-.47h-.01c.33.02.49-.14.48-.46l-.02.02c.09-.09.17-.17.26-.26.15-.14.29-.29.44-.43.36.02.6-.14.74-.46.4.41-.05.76-.12,1.12-.21,1.13-1.03,2.09-1.02,3.29l.02-.02c-.79.4-.86,1.13-.86,1.89v.04c-.71.5-1.14,1.15-1.11,2.04l-.06.1c-.58,0-.53.43-.55.8l.02-.02c-.47.08-.55.4-.53.79-2.04,3.3-4.61,6.15-7.52,8.72-.34.3-.63.68-1.1.82-.2.02-.47-.02-.34.33-.02.04-.05.06-.09.08-.52-.19-.63.21-.79.53l.02-.02c-.23,0-.44.02-.4.33h0c-.16-.06-.26.01-.3.17l.02-.02c-.38-.05-.64.1-.73.47l.02-.02c-.53.03-.99.15-1.19.71l.02-.02c-.79.01-1.41.29-1.79,1.01,0,0-.07.01-.07.01-.46-.17-.77-.04-.95.41l.02-.02c-.23-.06-.43-.06-.52.21l.02-.02c-.53-.11-1,.14-1.46.31-5.87,2.15-11.86,2.49-17.99,1.28-1.82-.36-3.58-1.03-5.45-1.17-4.2-1.28-7.91-3.42-11.52-6.19.65-.32,1.04-.3,1.45-.18.05.35.34.34.6.41,5.23,1.3,10.53,1.6,15.88,1.07.74-.07,1.55.03,2.26-.36,1.37-.46,2.89-.34,4.21-1.01.09.07.19.21.26.2,2.89-.66,5.75-1.45,8.45-2.71h0Z"/>
    <path class="cls-30" d="M48.15,158.38c1.87.14,3.62.81,5.45,1.17,6.13,1.21,12.12.86,17.99-1.28.47-.17.93-.43,1.46-.31-2.87,1.39-5.94,2.07-9.08,2.47-5.29.68-10.41-.29-15.44-1.83-.14-.04-.26-.14-.38-.22h0Z"/>
    <path class="cls-19" d="M12.74,56.32c-.91,3.6-1.37,7.25-1.17,10.97.17,3.06.81,6.02,2.11,8.83.35.75.82,1.47.86,2.34-1.64-2.4-2.39-5.14-2.95-7.93-.92-4.61-.4-9.16.71-13.68.04-.18.15-.35.22-.53h.22Z"/>
    <path class="cls-12" d="M37.13,92.16c1.69,0,3.37,0,5.06.02,5.88.07,11.35-1.51,16.62-3.95.51-.23.9-.79,1.58-.6-3.32,2.08-7,3.28-10.82,4.1-3.78.81-7.6,1.06-11.46.7-.35-.03-.69-.03-.97-.26h0Z"/>
    <path class="cls-2" d="M56.81,153.13c-.7.4-1.52.29-2.26.36-5.35.53-10.65.24-15.88-1.07-.27-.07-.55-.06-.6-.41,4.86,1.19,9.81,1.49,14.79,1.26,1.32-.06,2.62-.32,3.95-.16h0Z"/>
    <path class="cls-24" d="M27.04,109.19c5.88,1.89,11.94,2.26,18.07,2.08-1.83.51-3.73.57-5.59.42-3.2-.25-6.4-.53-9.51-1.36-1-.27-1.98-.62-2.97-.93v-.21h0Z"/>
    <path class="cls-25" d="M50.24,98.42c-2.04.63-4.16.71-6.26.85-2.23.15-4.49.1-6.72-.19-.24-.03-.46-.04-.6-.27,2.87,0,5.74.26,8.62.05,1.66-.12,3.28-.66,4.96-.44h0Z"/>
    <path class="cls-22" d="M34.58,126.88c-1.73.07-3.35-.5-4.98-.93-1.82-.49-3.6-1.12-5.39-1.73-.32-.11-.8-.16-.83-.67,3.47,1.38,7.05,2.38,10.72,3.09.19.04.39.02.47.24h0Z"/>
    <path class="cls-17" d="M55.18,139.3c3.59-.79,7.03-2.05,10.58-2.97-2.35,1.23-4.93,1.81-7.46,2.51-1.02.28-2.08.44-3.12.66v-.2h0Z"/>
    <path class="cls-3" d="M45.33,127.57c-3.35.02-6.7.12-10.02-.46-.18-.03-.35-.13-.53-.2,1.33-.24,2.63.16,3.94.24,2.21.13,4.41.27,6.61,0v.42h0Z"/>
    <path class="cls-25" d="M69.72,149.61c-2.7,1.25-5.55,2.04-8.45,2.71-.07.02-.17-.13-.26-.2,2.73-.74,5.46-1.51,8.12-2.48.16-.06.38-.35.58-.03h0Z"/>
    <path class="cls-18" d="M61.95,123.59c-.29.52-.85.64-1.36.78-2.34.66-4.61,1.58-7.06,1.83,0-.07,0-.14,0-.2,2.86-.62,5.63-1.52,8.42-2.4Z"/>
    <path class="cls-14" d="M53.53,126c0,.07,0,.14,0,.2-1.93.76-4,.86-6.02,1.11-.72.09-1.46.18-2.19.25v-.42c2.78-.09,5.5-.57,8.21-1.15h0Z"/>
    <path class="cls-1" d="M39.25,32.63c-2.64.77-5.27,1.53-7.91,2.3,2.41-1.36,5.09-1.92,7.77-2.45.03,0,.09.1.14.16h0Z"/>
    <path class="cls-8" d="M12.74,56.32h-.21c.77-2.71,1.92-5.25,3.47-7.62.05.31,0,.61-.18.88-1.39,2.09-2.12,4.47-3.08,6.74h0Z"/>
    <path class="cls-16" d="M56.17,33.23c-.59.25-1.13-.02-1.69-.12-1.92-.33-3.83-.78-5.81-.72-.25,0-.51-.14-.77-.22v-.19c2.79.2,5.59.36,8.27,1.24h0Z"/>
    <path class="cls-12" d="M94.29,112.63c-.35-.04-.38-.29-.43-.57-.38-2.1-.96-4.15-1.62-6.18-.08-.26-.39-.54-.04-.83.99,2.45,1.66,4.99,2.09,7.58Z"/>
    <path class="cls-8" d="M91.79,138.65c-.01-1.2.8-2.16,1.02-3.29.07-.37.52-.71.12-1.12,0-.09-.01-.18-.02-.27.33-.41.66-.82.99-1.23-.55,2.04-1.1,4.06-2.11,5.91h0Z"/>
    <path class="cls-31" d="M76.75,57.7c-.39-2.22-.77-4.44-1.16-6.66.05,0,.1,0,.15,0,.69,2.17,1.07,4.4,1.2,6.66h-.19,0Z"/>
    <path class="cls-14" d="M48.85,110.82c2.24-.58,4.45-1.34,6.8-1.44-2.23.61-4.45,1.34-6.8,1.44Z"/>
    <path class="cls-8" d="M73.25,74.51c.59-2.15,1.43-4.2,2.37-6.23-.44,2.2-1.25,4.27-2.37,6.23Z"/>
    <path class="cls-1" d="M19.6,127.12c.74.34.64,1.09.76,1.66.31,1.49,1.23,2.8,1.24,4.36-.95-1.92-1.46-3.98-1.99-6.02h0Z"/>
    <path class="cls-25" d="M33.63,98.37c-2-.17-3.91-.6-5.64-1.63,1.9.48,3.81.94,5.64,1.63Z"/>
    <path class="cls-16" d="M31.73,138.38c1.88.38,3.75.77,5.63,1.15v.42c-1.87-.47-3.79-.75-5.63-1.38v-.2h0Z"/>
    <path class="cls-1" d="M28.62,90.16c.66-.2,1.18.23,1.76.39,1.29.35,2.59.66,3.89.98.02,0,.05.06.05.07-.03.06-.07.12-.11.18-1.93-.33-3.82-.77-5.58-1.63h0Z"/>
    <path class="cls-21" d="M37.36,139.95v-.42c1.69.45,3.46.3,5.16.69v.19c-1.75.17-3.43-.43-5.16-.46Z"/>
    <path class="cls-8" d="M75.74,51.03c-.05,0-.1,0-.15,0-.7-1.62-1.67-3.13-1.98-4.91.93,1.54,1.62,3.19,2.14,4.9h0Z"/>
    <path class="cls-13" d="M76.75,57.7h.19c.09,2.07.14,4.15-.24,6.2h-.19c.03-2.07.37-4.13.23-6.21h0Z"/>
    <path class="cls-8" d="M76.52,63.9h.19c-.3,1.48-.4,3.02-1.1,4.4.06-1.52.47-2.96.92-4.4h0Z"/>
    <path class="cls-18" d="M56.8,96.49c-1.42.94-3.02,1.33-4.71,1.41,1.57-.47,3.14-.94,4.71-1.41Z"/>
    <path class="cls-13" d="M55.18,139.3v.2c-1.48.23-2.97.46-4.45.68.04-.2.12-.39.35-.39,1.39,0,2.71-.55,4.1-.49h0Z"/>
    <path class="cls-25" d="M31.73,138.38v.2c-1.29-.35-2.57-.73-3.77-1.34.08,0,.16,0,.23-.01,1.23.22,2.41.6,3.53,1.16h0Z"/>
    <path class="cls-23" d="M42.52,140.41v-.19c1.8,0,3.6,0,5.4,0-1.05.46-2.15.14-3.23.21-.72.05-1.45-.02-2.18-.03h0Z"/>
    <path class="cls-18" d="M60.33,95.01c-.97.99-2.2,1.38-3.56,1.5,1.19-.5,2.37-1,3.56-1.5Z"/>
    <path class="cls-23" d="M47.9,31.99v.19c-1.56-.11-3.13.24-4.68-.19,1.56,0,3.11,0,4.67,0h0Z"/>
    <path class="cls-2" d="M75.82,131.52c.64-.9,1.57-1.34,2.6-1.62-.79.66-1.66,1.19-2.6,1.62Z"/>
    <path class="cls-25" d="M36.68,98.83c-1.06.04-2.11.07-3.07-.47,1.04.06,2.08.11,3.07.47Z"/>
    <path class="cls-2" d="M68.78,135.14c.62-.72,1.45-1.02,2.37-1.11-.73.49-1.52.87-2.37,1.11Z"/>
    <path class="cls-8" d="M89.83,142.59c-.03-.89.41-1.54,1.11-2.04-.37.68-.74,1.36-1.11,2.04Z"/>
    <path class="cls-8" d="M90.95,140.52c0-.75.07-1.48.86-1.89-.16.68-.51,1.28-.86,1.89Z"/>
    <path class="cls-16" d="M58.52,33.92c-.89.14-1.69-.03-2.31-.72.77.24,1.54.48,2.31.72Z"/>
    <path class="cls-30" d="M74.54,157.35c.37-.72,1-1,1.79-1.01-.52.47-1.17.7-1.79,1.01Z"/>
    <path class="cls-14" d="M46.97,111.22c.47-.84,1.27-.26,1.9-.41-.58.35-1.26.29-1.9.41Z"/>
    <path class="cls-25" d="M28.01,96.75c-.72-.09-1.5-.05-1.9-.85.64.27,1.36.36,1.9.85Z"/>
    <path class="cls-13" d="M23.73,108.05c.63.06,1.3.03,1.66.71-.6-.14-1.17-.33-1.66-.71Z"/>
    <path class="cls-13" d="M27.04,109.19v.21c-.59-.13-1.21-.2-1.68-.64.64-.13,1.15.17,1.68.44Z"/>
    <path class="cls-8" d="M17.63,46.12c-.04.66-.3,1.18-.96,1.43.21-.55.53-1.03.96-1.43Z"/>
    <path class="cls-13" d="M23.93,135.44c.64-.07,1.17.05,1.44.71-.53-.14-1.03-.33-1.44-.71Z"/>
    <path class="cls-13" d="M25.83,136.34c.64.06,1.32.01,1.66.72-.59-.17-1.17-.34-1.66-.72Z"/>
    <path class="cls-1" d="M25.52,88.75c.67-.08,1.14.21,1.49.74-.55-.14-1.06-.37-1.49-.74Z"/>
    <path class="cls-16" d="M59.92,34.44c-.54.02-1.14.18-1.36-.54.46.17.97.22,1.36.54Z"/>
    <path class="cls-8" d="M70.65,78.84c-.18-.65.3-.88.75-1.14-.25.38-.5.76-.75,1.14Z"/>
    <path class="cls-8" d="M71.38,77.73c-.08-.58.17-.96.72-1.17-.11.46-.41.82-.72,1.17Z"/>
    <path class="cls-12" d="M62.64,86.32c-.03-.74.55-.69,1.03-.76-.34.26-.69.51-1.03.76Z"/>
    <path class="cls-12" d="M60.82,87.39c.21-.54.6-.79,1.18-.71-.34.33-.73.57-1.18.71h0Z"/>
    <path class="cls-8" d="M72.08,76.58c-.1-.58.18-.95.7-1.18-.12.46-.37.84-.7,1.18Z"/>
    <path class="cls-2" d="M74.19,132.45c.22-.54.67-.7,1.21-.69-.34.34-.75.56-1.21.69Z"/>
    <path class="cls-8" d="M73.06,45.25c-.58-.18-.69-.65-.74-1.16.37.31.58.71.74,1.16Z"/>
    <path class="cls-13" d="M22.06,134.28c.53-.04.8.26.98.69-.42-.1-.79-.28-.98-.69Z"/>
    <path class="cls-19" d="M15.42,79.9c.73,0,.7.57.81,1.05-.27-.35-.54-.7-.81-1.05Z"/>
    <path class="cls-12" d="M65.75,83.95c.22-.43.42-.87,1.03-.83-.34.28-.68.55-1.03.83Z"/>
    <path class="cls-30" d="M76.31,156.37c.19-.56.66-.68,1.19-.71-.32.36-.73.57-1.19.71Z"/>
    <path class="cls-16" d="M60.99,34.93c-.45,0-.87-.06-1.1-.51.41.09.83.14,1.1.51Z"/>
    <path class="cls-1" d="M22.63,40.34c.09.62-.31.75-.8.79.27-.26.53-.53.8-.79Z"/>
    <path class="cls-1" d="M27.47,89.68c.49-.04.94,0,1.18.51-.42-.1-.85-.2-1.18-.51Z"/>
    <path class="cls-12" d="M63.65,85.57c.14-.46.42-.75.95-.71-.25.32-.56.57-.95.71Z"/>
    <path class="cls-22" d="M23.36,123.55c-.47.19-.83.13-.98-.4.33.14.65.27.98.4Z"/>
    <path class="cls-8" d="M73.59,46.07c-.68.03-.58-.42-.55-.84.19.28.37.56.55.84Z"/>
    <path class="cls-1" d="M23.5,39.64c-.13.38-.24.77-.8.64.27-.21.53-.43.8-.64Z"/>
    <path class="cls-20" d="M92.91,133.97c0,.09.01.18.02.27-.14.32-.38.48-.74.46.24-.24.49-.49.73-.73Z"/>
    <path class="cls-2" d="M71.6,133.81c.15-.47.53-.51.95-.48-.26.27-.59.4-.95.48Z"/>
    <path class="cls-8" d="M71.17,42.49c-.47.05-.53-.24-.5-.59.3.09.39.35.5.59Z"/>
    <path class="cls-20" d="M79.91,86.94c-.5.08-.72-.12-.63-.63.21.21.42.42.63.63Z"/>
    <path class="cls-30" d="M73.52,157.78c.17-.45.49-.59.95-.41-.32.14-.63.28-.95.41Z"/>
    <path class="cls-8" d="M16.69,47.54c.04.36.06.71-.45.72.08-.28.19-.55.45-.72Z"/>
    <path class="cls-30" d="M78.88,154.74c.16-.32.26-.73.79-.53-.26.18-.53.36-.79.53Z"/>
    <path class="cls-8" d="M88.72,144.26c-.02-.39.06-.71.53-.79-.07.33-.25.6-.53.79Z"/>
    <path class="cls-8" d="M89.22,143.49c.03-.37-.02-.8.55-.8-.19.27-.37.53-.55.8Z"/>
    <path class="cls-8" d="M72.77,75.41c-.03-.41,0-.78.49-.93-.06.36-.23.67-.49.93Z"/>
    <path class="cls-22" d="M21.45,122.72c-.43.04-.85.04-.93-.52.31.17.62.35.93.52Z"/>
    <path class="cls-13" d="M21.07,106.68c.4.03.86-.02.9.57-.3-.19-.6-.38-.9-.57Z"/>
    <path class="cls-12" d="M65.16,84.48c-.09-.5.23-.55.61-.55-.2.18-.41.37-.61.55Z"/>
    <path class="cls-20" d="M76.16,83.26c-.23.14-.47.14-.7,0,.23-.4.47-.34.7,0Z"/>
    <path class="cls-22" d="M20.54,122.22c-.4.1-.64-.06-.76-.43.31.04.55.21.76.43Z"/>
    <path class="cls-8" d="M71.87,43.43c-.37-.09-.51-.34-.5-.7.27.16.39.42.5.7Z"/>
    <path class="cls-8" d="M72.34,44.12c-.38-.09-.52-.34-.49-.71.28.16.41.41.49.71Z"/>
    <path class="cls-21" d="M84.72,125.28c-.19-.52.24-.39.49-.45-.16.15-.33.3-.49.45Z"/>
    <path class="cls-19" d="M16.84,81.78c.55-.15.56.19.54.57-.18-.19-.36-.38-.54-.57Z"/>
    <path class="cls-2" d="M78.4,129.92c.1-.37.35-.51.72-.48-.16.28-.42.4-.72.48Z"/>
    <path class="cls-19" d="M15.06,79.31c.37.03.53.18.34.54-.11-.18-.23-.36-.34-.54Z"/>
    <path class="cls-2" d="M72.54,133.35c.14-.36.37-.53.77-.4-.22.21-.46.37-.77.4Z"/>
    <path class="cls-13" d="M21.87,133.55c.3.18.24.46.2.74-.26-.18-.28-.48-.38-.74h.18Z"/>
    <path class="cls-30" d="M77.48,155.67c.09-.38.35-.52.73-.47-.17.27-.42.42-.73.47Z"/>
    <path class="cls-20" d="M78.42,85.49c-.34.02-.5-.14-.49-.47.16.16.32.31.49.47Z"/>
    <path class="cls-20" d="M77.72,84.8c-.34.02-.5-.15-.49-.48l.49.48Z"/>
    <path class="cls-19" d="M16.42,81.18c.28.07.53.16.35.52-.11-.17-.23-.35-.35-.52Z"/>
    <path class="cls-22" d="M19.81,121.8c-.29.03-.47-.06-.49-.37.23.04.39.16.49.37Z"/>
    <path class="cls-13" d="M28.2,137.22c-.08,0-.16,0-.23.01-.19,0-.39,0-.5-.2.27-.02.55-.1.74.19Z"/>
    <path class="cls-17" d="M65.74,136.34c.16-.33.46-.25.74-.24-.17.3-.49.17-.74.24Z"/>
    <path class="cls-20" d="M91.04,135.83c0,.33-.15.49-.49.47.16-.16.33-.31.49-.47Z"/>
    <path class="cls-21" d="M85.44,124.61c-.01-.33.15-.49.49-.47-.16.16-.33.31-.49.47Z"/>
    <path class="cls-20" d="M91.5,135.36c.02.33-.15.48-.48.48.16-.16.32-.32.48-.48Z"/>
    <path class="cls-21" d="M86.86,123.25c-.03-.34.13-.5.48-.48-.16.16-.32.32-.48.48Z"/>
    <path class="cls-13" d="M23.25,107.83c.21-.02.41,0,.5.24-.19-.04-.41,0-.5-.24Z"/>
    <path class="cls-2" d="M71.14,134.06c.08-.24.27-.26.49-.26-.09.21-.3.22-.49.26Z"/>
    <path class="cls-1" d="M20.93,42.04c-.02.21,0,.44-.34.32.11-.11.23-.21.34-.32Z"/>
    <path class="cls-19" d="M14.79,78.86c.25.06.28.25.28.46-.2-.09-.24-.28-.28-.46Z"/>
    <path class="cls-13" d="M22.78,107.6c.22-.02.42,0,.5.25-.19-.04-.41-.02-.5-.25Z"/>
    <path class="cls-8" d="M16.24,48.25c0,.21-.03.39-.26.47.04-.18.05-.38.26-.47Z"/>
    <path class="cls-19" d="M14.52,78.43c.29.03.31.23.29.45-.21-.08-.24-.27-.29-.45Z"/>
    <path class="cls-13" d="M23.01,134.95c.22-.01.42.01.49.27-.19-.05-.4-.04-.49-.27Z"/>
    <path class="cls-13" d="M23.47,135.2c.23-.03.43,0,.49.27-.19-.05-.4-.05-.49-.27Z"/>
    <path class="cls-17" d="M66.44,136.13c.11-.27.34-.26.58-.24-.13.23-.37.2-.58.24Z"/>
    <path class="cls-13" d="M25.34,136.12c.22-.03.42-.02.51.23-.19-.04-.41-.01-.51-.23Z"/>
    <path class="cls-13" d="M22.31,107.37c.22-.01.42,0,.49.26-.19-.04-.4-.03-.49-.26Z"/>
    <path class="cls-20" d="M76.54,83.66c-.21-.02-.45,0-.32-.34.11.11.21.23.32.34Z"/>
    <path class="cls-30" d="M79.76,154.13c-.13-.35.14-.31.34-.33-.11.11-.23.22-.34.33Z"/>
    <path class="cls-1" d="M26.97,89.47c.23-.04.43-.03.52.23-.19-.05-.41-.01-.52-.23Z"/>
    <path class="cls-30" d="M78.49,155.05c-.04-.31.17-.33.4-.33-.13.11-.27.22-.4.33Z"/>
    <path class="cls-12" d="M60.36,87.64c.06-.26.26-.28.48-.27-.08.23-.29.23-.48.27Z"/>
    <path class="cls-19" d="M17.57,82.58c.27,0,.31.19.32.39-.11-.13-.22-.26-.32-.39Z"/>
    <path class="cls-30" d="M73.02,157.98c.08-.27.28-.28.52-.21-.17.07-.34.14-.52.21Z"/>
    <path class="cls-2" d="M79.41,129.3c0-.29.19-.33.42-.32-.14.11-.28.22-.42.32Z"/>
    <path class="cls-22" d="M21.92,122.95c-.22.02-.42,0-.49-.25.19.04.41.03.49.25Z"/>
    <path class="cls-20" d="M79.21,86.24c-.34.14-.32-.1-.34-.3.11.1.23.2.34.3Z"/>
    <path class="cls-2" d="M75.37,131.78c.05-.26.25-.29.47-.28-.08.22-.28.23-.47.28Z"/>
    <path class="cls-2" d="M73.74,132.71c.05-.27.24-.3.47-.28-.08.21-.29.23-.47.28Z"/>
    <path class="cls-2" d="M73.29,132.96c.03-.3.23-.32.48-.27-.16.09-.32.18-.48.27Z"/>
    <path class="cls-22" d="M22.4,123.16c-.23.04-.42.02-.51-.23.19.04.41.01.51.23Z"/>
    <path class="cls-1" d="M21.87,133.55h-.18c-.04-.14-.09-.28-.13-.42.26.03.31.21.31.43h0Z"/>
    <path class="cls-1" d="M21.4,41.57c-.08.09-.17.17-.25.26.08-.09.17-.17.25-.26Z"/>
    <path class="cls-1" d="M21.17,41.81c-.08.09-.17.17-.26.25.08-.09.17-.17.26-.25Z"/>
    <path class="cls-1" d="M20.51,42.45s.07.09.11.14c-.05-.03-.1-.05-.15-.08l.04-.06h0Z"/>
    <path class="cls-8" d="M71.38,42.75c-.08-.09-.16-.18-.23-.27.08.09.16.18.23.27Z"/>
    <path class="cls-12" d="M61.99,86.69c.1-.07.2-.14.3-.21-.1.07-.2.14-.3.21Z"/>
    <path class="cls-20" d="M80.13,87.18c-.19.08-.25.03-.17-.16.06.05.11.11.17.16Z"/>
    <path class="cls-19" d="M17.36,82.33c.16.03.24.12.23.28-.08-.09-.16-.19-.23-.28Z"/>
    <path class="cls-21" d="M86.14,123.94c.09-.09.18-.17.27-.26-.09.09-.18.17-.27.26Z"/>
    <path class="cls-21" d="M85.91,124.16c.09-.09.18-.17.27-.25-.09.09-.18.17-.27.25Z"/>
    <path class="cls-21" d="M85.2,124.84c.09-.08.17-.17.26-.25-.09.08-.17.17-.26.25Z"/>
    <path class="cls-20" d="M90.57,136.28c-.09.09-.17.17-.26.25.09-.09.17-.17.26-.25Z"/>
    <path class="cls-20" d="M90.34,136.51c-.09.08-.18.17-.27.25.09-.08.18-.17.27-.25Z"/>
    <path class="cls-20" d="M90.1,136.73c-.1.09-.19.17-.29.26.1-.09.19-.17.29-.26Z"/>
    <path class="cls-2" d="M79.81,128.99c.11-.08.22-.16.33-.24-.11.08-.22.16-.33.24Z"/>
    <path class="cls-20" d="M75.37,83.37s.07.09.11.13c-.05-.02-.1-.05-.15-.07l.04-.06Z"/>
    <path class="cls-21" d="M86.62,123.49c.09-.09.18-.17.26-.26-.09.09-.18.17-.26.26Z"/>
    <path class="cls-19" d="M16.22,80.93c.08.09.15.18.23.28-.08-.09-.15-.18-.23-.28Z"/>
    <path class="cls-12" d="M62.26,86.51c.03-.16.1-.23.26-.12-.09.04-.17.08-.26.12Z"/>
    <path class="cls-20" d="M76.79,83.89c-.09-.08-.18-.17-.27-.25.09.08.18.17.27.25Z"/>
    <path class="cls-12" d="M64.87,84.68c0-.17.08-.25.26-.19-.09.06-.17.13-.26.19Z"/>
    <path class="cls-21" d="M86.38,123.72l.27-.26-.27.26Z"/>
    <path class="cls-21" d="M87.32,122.79c.06-.09.13-.17.19-.26.04.16-.07.22-.19.26Z"/>
    <path class="cls-12" d="M64.59,84.88c.04-.15.13-.23.29-.21-.1.07-.19.14-.29.21Z"/>
    <path class="cls-20" d="M77.95,85.04c-.08-.09-.17-.17-.25-.26.08.09.17.17.25.26Z"/>
    <path class="cls-1" d="M21.63,41.33c-.09.09-.17.18-.26.27.09-.09.17-.18.26-.27Z"/>
    <path class="cls-20" d="M78.89,85.96c-.08-.09-.17-.17-.25-.25.08.09.17.17.25.25Z"/>
    <path class="cls-20" d="M78.66,85.73c-.08-.09-.17-.17-.25-.26.08.09.17.17.25.26Z"/>
    <path class="cls-2" d="M79.11,129.45c.05-.15.15-.21.31-.19-.11.06-.21.12-.31.19Z"/>
    <path class="cls-30" d="M78.18,155.21c.04-.15.14-.22.3-.18-.1.06-.2.12-.3.18Z"/>
    <path class="cls-12" d="M66.81,83.08c-.04-.17,0-.24.19-.15-.06.05-.12.1-.19.15Z"/>
    <path class="cls-12" d="M67.1,82.83s-.06-.09-.09-.14c.04.03.09.06.13.09l-.04.05Z"/>
    <path class="cls-20" d="M80.27,87.33s-.1.05-.15.08c.04-.05.07-.09.11-.14l.04.06Z"/>
    <path class="cls-20" d="M91.75,135.12c-.09.09-.17.17-.26.26.09-.09.17-.17.26-.26Z"/>
    <path class="cls-13" d="M22.03,107.27c.15-.09.24-.03.3.12-.1-.04-.2-.08-.3-.12Z"/>
    <path class="cls-10" d="M45.64,73.58c.77-.6,1.4-1.33,2.24-1.88.92-.6,1.7-.87,2.62-.15.73.57,1,1.86.5,2.79-.53,1-1.08,2.01-2.15,2.6-.37,0-.56.26-.75.51h.01c-.18.09-.36.2-.54.3l-.08.06c-.26.19-.53.37-.8.56l.02-.02c-2.32,1.14-4.72,1.98-7.33,2.25-1.81.19-3.54-.29-5.32-.4l.02.02c-.04-.12-.1-.22-.26-.18-1.05.14-1.75-.61-2.6-.99-2.81-1.27-4.99-3.21-6.41-5.94-.37-.71-.74-1.42-.6-2.26.25-.38.5-.76.75-1.15l-.03.03c.91-.48,1.81-1.02,2.81-.2.01.04.04.07.07.09.23.43.39.9.77,1.25l-.02-.02c.04.18.07.38.29.45l-.02-.02c.07.1.14.2.21.29l-.02-.02c.06.15.07.36.31.35.56.55,1.12,1.11,1.68,1.66.24.26.52.45.87.53l-.02-.02c3.55,2.41,9.53,2.4,13-.02l-.02.02c.34-.04.57-.23.76-.49h0Z"/>
    <path class="cls-10" d="M26.22,50.37c1.13-.42,2.24-.53,3.29.23.11.08.22.17.32.25l-.04-.03c.09.08.18.17.27.25l-.03-.03c.29.48.58.96.88,1.43h0c.69,1.95.65,3.92.16,5.9-.44,2.22-1.81,3.62-3.94,4.44-.8.31-1.38.05-2-.31-.1-.31-.43-.33-.65-.5-.15-.14-.29-.28-.44-.43-.41-.72-.8-1.43-1-2.26-.5-2.06-.11-4.03.53-5.99l-.02.02c.23-.09.21-.3.25-.49l-.02.02c.23-.08.23-.29.28-.47l-.02.03c.11-.13.22-.25.32-.38l.02-.03c.12-.18.24-.36.37-.54l-.03.03c.09-.09.18-.18.26-.26.07-.06.13-.13.2-.19.09-.09.18-.17.28-.26l-.03.03c.19-.04.38-.08.46-.28h-.02c.12-.06.23-.13.35-.21h0Z"/>
    <path class="cls-10" d="M54.19,63.43c-.07.07-.13.13-.2.2-.17.16-.33.32-.5.48l.02-.02c-.28.1-.55.21-.73.46l.02-.02c-.24.06-.52.03-.67.29-1.3.5-2.05.26-3.14-.94-.43-.48-.68-1.06-1-1.61-.48-1.42-.24-2.89-.36-4.34.03-.06.05-.13.04-.2.48-.61.53-1.38.77-2.07,0,0-.03.03-.03.03.22-.1.2-.32.25-.5l-.02.03c.22-.09.22-.3.27-.48l-.03.03c.18-.24.35-.48.53-.72.05-.07.1-.13.14-.2.16-.17.33-.34.49-.51.07-.06.14-.13.21-.19.09-.08.19-.17.28-.25l-.03.03c1.08-.57,2.2-.88,3.41-.41l-.02-.02c.11.06.21.11.32.17h-.02c.22.16.45.34.67.52,0,0-.03-.03-.03-.03.18.23.35.45.53.68l-.02-.02c.04.19.04.39.26.49.9,2.65.59,5.22-.49,7.75l.02-.02c-.22.09-.23.28-.28.46l.02-.03c-.25.18-.41.42-.49.71l.03-.03c-.08.09-.17.18-.25.28h0Z"/>
    <path class="cls-16" d="M44.9,74.05c-3.47,2.42-9.45,2.43-13,.02.66-.05,1.19.34,1.75.57,3.49,1.43,6.9,1.11,10.27-.33.33-.14.6-.34.98-.26h0Z"/>
    <path class="cls-18" d="M34.08,80.19c1.77.11,3.5.59,5.32.4,2.61-.27,5.01-1.11,7.33-2.25-.88,1-2.12,1.38-3.32,1.76-2.66.86-5.4,1.07-8.17.56-.41-.08-.86-.11-1.15-.48h0Z"/>
    <path class="cls-17" d="M55.13,62.05c1.07-2.53,1.39-5.1.49-7.75,0-.1.02-.19.02-.29,1.18,1.83,1.06,3.79.56,5.77-.2.81-.16,1.77-1.07,2.27Z"/>
    <path class="cls-18" d="M23.57,53.34c-.65,1.96-1.03,3.93-.53,5.99.2.82.59,1.54,1,2.26-.94-.3-1.03-1.16-1.21-1.89-.43-1.79-.4-3.6.09-5.37.1-.37.11-.86.65-.99h0Z"/>
    <path class="cls-16" d="M31.06,58.38c.49-1.98.54-3.94-.16-5.89.29,0,.41.21.47.42.51,1.74.52,3.49.04,5.24-.03.1-.24.15-.36.23h0Z"/>
    <path class="cls-19" d="M53.93,52.52c-1.21-.47-2.33-.16-3.41.41.99-1.19,2.48-1.36,3.41-.41Z"/>
    <path class="cls-12" d="M27.78,69.52c-1-.82-1.9-.28-2.81.2.28-.89,1.09-.92,1.8-.96.42-.02,1.09-.02,1.01.76h0Z"/>
    <path class="cls-1" d="M47.64,57.93c.12,1.45-.12,2.92.36,4.34-.43-.16-.56-.54-.54-.91.06-1.14-.26-2.31.18-3.43Z"/>
    <path class="cls-1" d="M48.45,55.65c-.24.7-.29,1.46-.77,2.07.03-.77.07-1.54.77-2.07Z"/>
    <path class="cls-16" d="M30.91,52.49c-.29-.48-.58-.96-.88-1.43.58.31,1.15.62.88,1.43Z"/>
    <path class="cls-12" d="M28.62,70.86c-.38-.34-.54-.81-.77-1.25.71.15.71.71.77,1.25Z"/>
    <path class="cls-12" d="M25,69.69c-.25.38-.5.76-.75,1.15-.07-.58.14-.99.75-1.15Z"/>
    <path class="cls-16" d="M31.92,74.09c-.35-.09-.63-.28-.87-.53.4,0,.79.02.87.53Z"/>
    <path class="cls-17" d="M52.13,64.82c.15-.26.43-.22.67-.29-.13.32-.23.7-.67.29Z"/>
    <path class="cls-17" d="M52.78,64.55c.18-.25.45-.36.73-.46,0,.53-.35.51-.73.46Z"/>
    <path class="cls-18" d="M46.7,78.36c.26-.19.53-.37.8-.56,0,.56-.43.51-.8.56Z"/>
    <path class="cls-19" d="M55.38,53.83c-.17-.23-.35-.45-.53-.68.44.03.56.29.53.68Z"/>
    <path class="cls-18" d="M48.1,77.44c.19-.25.37-.51.75-.51-.11.37-.35.54-.75.51Z"/>
    <path class="cls-1" d="M49.42,54.04c-.18.24-.36.48-.53.72-.06-.41.11-.65.53-.72Z"/>
    <path class="cls-18" d="M24.47,62.02c.22.16.55.19.65.5-.37.03-.67-.03-.65-.5Z"/>
    <path class="cls-17" d="M54.41,63.18c.08-.29.23-.54.49-.71.06.38-.08.63-.49.71Z"/>
    <path class="cls-18" d="M47.58,77.74c.18-.11.36-.21.54-.31-.02.37-.15.55-.54.31Z"/>
    <path class="cls-16" d="M45.64,73.58c-.19.26-.43.45-.76.49.1-.4.38-.52.76-.49Z"/>
    <path class="cls-19" d="M54.88,53.19c-.22-.18-.45-.35-.67-.53.38,0,.65.11.67.53Z"/>
    <path class="cls-17" d="M53.5,64.11c.17-.16.33-.32.5-.48,0,.33-.15.5-.5.48Z"/>
    <path class="cls-19" d="M50.06,53.34c-.16.17-.33.34-.49.51-.02-.34.14-.51.49-.51Z"/>
    <path class="cls-18" d="M24.74,51.51c-.12.18-.24.36-.37.54-.14-.35.09-.46.37-.54Z"/>
    <path class="cls-17" d="M54.87,62.49c.05-.18.06-.38.28-.46.01.22-.01.41-.28.46Z"/>
    <path class="cls-18" d="M25.89,50.58c-.09.2-.28.23-.46.28.06-.25.25-.28.46-.28Z"/>
    <path class="cls-18" d="M24.35,52.09c-.11.13-.22.25-.32.38-.01-.23-.02-.45.32-.38Z"/>
    <path class="cls-18" d="M24.06,52.43c-.05.18-.05.39-.28.47-.01-.22.02-.41.28-.47Z"/>
    <path class="cls-18" d="M23.8,52.88c-.04.18-.02.4-.25.49-.02-.21,0-.4.25-.49Z"/>
    <path class="cls-19" d="M55.65,54.01c0,.1-.02.19-.02.29-.22-.09-.22-.3-.26-.49.1.07.19.13.29.2Z"/>
    <path class="cls-1" d="M48.92,54.73c-.05.18-.05.39-.27.48-.03-.22,0-.42.27-.48Z"/>
    <path class="cls-1" d="M48.67,55.19c-.05.18-.03.4-.25.5-.04-.22-.02-.42.25-.5Z"/>
    <path class="cls-12" d="M28.89,71.29c-.22-.07-.25-.27-.29-.45.27.04.3.23.29.45Z"/>
    <path class="cls-12" d="M29.38,71.9c-.25,0-.25-.2-.31-.35.24,0,.3.15.31.35Z"/>
    <path class="cls-18" d="M26.22,50.37c-.12.07-.23.14-.35.22.12-.07.23-.14.35-.22Z"/>
    <path class="cls-18" d="M25.45,50.83c-.09.09-.18.17-.28.26.09-.09.18-.17.28-.26Z"/>
    <path class="cls-16" d="M30.07,51.08c-.09-.08-.18-.17-.27-.25.09.08.18.17.27.25Z"/>
    <path class="cls-19" d="M54.23,52.67c-.11-.06-.21-.11-.32-.17.15-.03.26.03.32.17Z"/>
    <path class="cls-19" d="M50.55,52.9c-.09.08-.19.17-.28.25.09-.08.19-.17.28-.25Z"/>
    <path class="cls-18" d="M24.98,51.27c-.09.09-.18.18-.26.26.09-.09.18-.18.26-.26Z"/>
    <path class="cls-16" d="M29.83,50.86c-.11-.08-.22-.17-.32-.25.11.08.22.17.32.25Z"/>
    <path class="cls-17" d="M54.19,63.43c.08-.09.17-.18.25-.28-.08.09-.17.18-.25.28Z"/>
    <path class="cls-12" d="M29.09,71.56c-.07-.1-.14-.19-.21-.29.07.1.14.19.21.29Z"/>
    <path class="cls-18" d="M33.85,80.03c.16-.04.21.06.26.18-.08-.06-.17-.12-.26-.18Z"/>
  </g>
  <text class="cls-6" transform="translate(140.99 152.08)"><tspan x="0" y="0">Busy</tspan><tspan x="20.66" y="26">Bee</tspan></text>
</svg>