<?xml version="1.0" encoding="UTF-8"?>
<svg id="Layer_1" xmlns="http://www.w3.org/2000/svg" viewBox="0 0 622 778">
  <defs>
    <style>
      .cls-1 {
        fill: #fdfcfa;
      }

      .cls-2 {
        fill: #f3e233;
      }

      .cls-3 {
        fill: #fdfdfb;
      }

      .cls-4 {
        fill: #f5e538;
      }

      .cls-5 {
        fill: #fdfa38;
      }

      .cls-6 {
        fill: #ecda33;
      }

      .cls-7 {
        fill: #f0dd35;
      }

      .cls-8 {
        fill: #fceb34;
      }

      .cls-9 {
        fill: #fdc62d;
      }

      .cls-10 {
        fill: #fdfcfb;
      }

      .cls-11 {
        fill: #fbe835;
      }

      .cls-12 {
        fill: #f2dd33;
      }

      .cls-13 {
        fill: #f4e334;
      }

      .cls-14 {
        fill: #f9e935;
      }

      .cls-15 {
        fill: #f7e134;
      }

      .cls-16 {
        fill: #f7e635;
      }

      .cls-17 {
        fill: #f5e332;
      }

      .cls-18 {
        fill: #f3e033;
      }

      .cls-19 {
        fill: #040604;
      }

      .cls-20 {
        fill: #f0de32;
      }

      .cls-21 {
        fill: #f1dd33;
      }

      .cls-22 {
        fill: #f4e733;
      }

      .cls-23 {
        fill: #030504;
      }

      .cls-24 {
        fill: #f4e032;
      }

      .cls-25 {
        fill: #f8e933;
      }
    </style>
  </defs>
  <path class="cls-3" d="M0,0h622v778H0c0-259.33,0-518.67,0-778ZM141.21,115.31c-.67.36-.93.56-1.23.65-44.94,13.75-79.73,40.25-103.65,81.08-20.05,34.22-28.06,70.86-22.08,109.89,5.81,37.9,24.6,68.73,55.46,91.81,2.61,1.95,2.46,3.22,1.27,5.56-13.1,25.59-20.94,52.63-24.28,81.27-2.94,25.23-2.44,50.27,3.64,74.69,17.06,68.58,58.19,117.91,122.28,147.65,31.94,14.82,65.49,21.27,100.8,16.19,3.87-.56,7.63-2.12,11.68,2.11,10.36,10.81,21.66,20.71,32.6,30.96,2.18,2.04,4.65,3.69,7.44,4.79,4.85,1.92,9.42,1.53,13.41-2.05,3.9-3.5,5.05-7.68,3.94-12.97-3.07-14.58-6.14-29.18-5.59-44.24.08-2.3.46-3.84,2.64-5.25,18.19-11.84,33.18-27.08,45.89-44.55,18.7-25.7,30.98-54.12,35.67-85.69.86-5.79,1.91-11.56,2.9-17.49,29.32,8.69,57.91,9.14,85.91-2.83,17.66-7.55,32.35-18.79,40.04-37.07,11.17-26.54.29-60.49-24.76-78.83-7.33-5.37-15.19-9.82-23.88-13.81,4.61-2.59,8.62-4.77,12.57-7.07,30.68-17.93,57.14-40.18,74.39-72.03,15.07-27.82,22.54-57.41,17.44-88.79-7-43.1-38.86-68.67-81.09-70.1-23.23-.79-44.96,5.94-65.58,16.17-37.44,18.58-66.9,46.93-94.21,77.8-7.29,8.25-14.3,16.74-21.34,25,14.02-77.18-8.34-137.45-80.6-175.47,1.25-2.85,2.66-6.16,4.16-9.44,5.48-11.97,12.38-22.94,22-32.12,7.96-7.6,17.11-11.7,28.24-11.08,8.58.48,16.85-.56,24.37-5.16,8.02-4.9,11.56-12.36,10.94-21.36-.71-10.22-6.68-16.85-16.3-19.53-12.05-3.36-22.89.43-33.13,6.28-17.11,9.77-29.88,24.03-40.66,40.27-9.31,14.02-16.15,29.27-22.02,44.99-25.24-6.32-50.52-8.08-75.94-4.53-5.3-21.94-13.63-41.99-26.8-59.81-9.67-13.08-20.76-24.66-35.93-31.5-6.36-2.87-12.91-4.79-20.02-4.87-8.79-.1-16.18,2.18-19.83,10.93-3.8,9.1-2.19,17.59,4.29,24.92,7.95,8.99,18.72,10.59,29.92,10.62,8.08.02,14.7,3.32,20.38,8.76,12.93,12.39,19.11,28.46,24.67,45.24Z"/>
  <path class="cls-23" d="M141.21,115.31c-5.56-16.78-11.74-32.85-24.67-45.24-5.68-5.44-12.3-8.74-20.38-8.76-11.2-.03-21.97-1.63-29.92-10.62-6.48-7.33-8.09-15.82-4.29-24.92,3.66-8.75,11.04-11.03,19.83-10.93,7.11.08,13.66,1.99,20.02,4.87,15.17,6.85,26.25,18.43,35.93,31.5,13.18,17.82,21.51,37.87,26.8,59.81,25.42-3.55,50.7-1.78,75.94,4.53,5.87-15.72,12.71-30.97,22.02-44.99,10.78-16.23,23.55-30.5,40.66-40.27,10.24-5.85,21.08-9.64,33.13-6.28,9.62,2.68,15.59,9.3,16.3,19.53.62,9-2.92,16.46-10.94,21.36-7.52,4.6-15.8,5.63-24.37,5.16-11.12-.62-20.28,3.48-28.24,11.08-9.62,9.19-16.51,20.15-22,32.12-1.5,3.27-2.91,6.59-4.16,9.44,72.26,38.02,94.61,98.29,80.6,175.47,7.03-8.25,14.04-16.75,21.34-25,27.31-30.87,56.77-59.23,94.21-77.8,20.62-10.23,42.35-16.96,65.58-16.17,42.22,1.43,74.08,27,81.09,70.1,5.1,31.39-2.37,60.97-17.44,88.79-17.25,31.84-43.71,54.1-74.39,72.03-3.95,2.31-7.96,4.49-12.57,7.07,8.7,3.99,16.55,8.44,23.88,13.81,25.06,18.34,35.94,52.29,24.76,78.83-7.7,18.28-22.38,29.52-40.04,37.07-28,11.97-56.59,11.53-85.91,2.83-.99,5.93-2.04,11.69-2.9,17.49-4.69,31.57-16.97,59.99-35.67,85.69-12.71,17.47-27.7,32.71-45.89,44.55-2.18,1.42-2.55,2.95-2.64,5.25-.55,15.06,2.52,29.66,5.59,44.24,1.11,5.29-.04,9.47-3.94,12.97-3.98,3.57-8.56,3.96-13.41,2.05-2.79-1.1-5.26-2.75-7.44-4.79-10.94-10.25-22.24-20.15-32.6-30.96-4.05-4.23-7.8-2.67-11.68-2.11-35.31,5.08-68.86-1.37-100.8-16.19-64.09-29.74-105.22-79.07-122.28-147.65-6.08-24.42-6.58-49.46-3.64-74.69,3.34-28.64,11.18-55.68,24.28-81.27,1.2-2.34,1.34-3.61-1.27-5.56-30.86-23.07-49.65-53.9-55.46-91.81-5.98-39.04,2.03-75.67,22.08-109.89,23.92-40.82,58.72-67.33,103.65-81.08.29-.09.55-.29,1.23-.65ZM277.85,360.32l.17-.22c5.91-4.89,10.69-10.77,14.95-17.11,1.06-1.65,2.13-3.29,3.19-4.94l-.07.08c1.34-1.5,2.6-3.05,3.08-5.08l-.07.09c1.42-1.46,2.45-3.15,2.98-5.13l-.04.06c1.14-1.12,1.83-2.46,2.1-4.03l-.06.08c4.74-8.52,8.23-17.5,10.09-27.09,0,0-.08.1-.08.1,2.98-6.04,3.43-12.7,4.7-19.15,1.61-8.95,1.41-17.97,1.02-26.99-.56-9.86-2.16-19.54-5.11-28.99-2.2-7.47-5.14-14.61-9.11-21.32l-.06-.27c-.79-1.21-1.57-2.43-2.36-3.64l.08.09c-.67-1.92-1.58-3.68-3.15-5.03l.08.09c-.32-1.28-.89-2.39-2.08-3.08l.07.08c-.44-1.2-.97-2.33-2.12-3.03l.05.07c-.34-.39-.67-.79-1.01-1.18l.1.08c-.47-1.06-.86-2.2-2.15-2.58-7.29-6.2-13.01-14.01-20.85-19.72-6.33-4.62-14.13-6.1-20.42-10.6-1.14-1.61-2.94-1.86-4.67-2.24l.12.1c-1.69-1.4-3.85-1.64-5.81-2.37l-.15.11c-3.29-1.04-6.58-2.09-9.87-3.13l-.14.14c-11.44-3.84-23.37-4.54-35.27-5.4-6.64,0-13.28,0-19.93.01-5.83-.14-11.15,2.85-16.97,2.77-.2-.24-.45-.7-.59-.68-11.44,2.33-22.86,4.75-33.14,10.67-1.09.66-2.1,1.55-3.28,1.96-11.43,3.96-21.27,10.47-30.15,18.56-1.14.92-2.28,1.84-3.41,2.77,0,0-.29.27-.29.27-1.14,1.15-2.28,2.3-3.42,3.46-.28.28-.56.56-.84.84-.37.39-.74.78-1.11,1.17,0,0,.11-.11.11-.11l-1.08,1.12s.1-.1.1-.1c-.37.37-.73.73-1.1,1.1l.07-.09-1.47,1.37c-.18.09-.28.23-.33.42l-.17.26c-4.54,4.85-8.87,9.86-12.1,15.73-1.82,1.79-3.2,3.86-4.1,6.24l.08-.09c-1.15.74-1.59,1.92-1.94,3.15l.04-.05c-.91.38-.98,1.23-1.13,2.03,0,0,.08-.1.08-.1-6.62,10.3-11.52,21.36-14.79,33.15-.32.76-.76,1.5-.95,2.29-4.72,19.65-6.97,39.46-3.03,59.52,2.38,12.13,5.56,24.02,12.58,34.48l-.09-.08c.23.78.35,1.62,1.25,1.97l-.09-.1c.17.8.34,1.6,1.18,1.99,0,0-.03-.05-.03-.05.48.79.96,1.58,1.44,2.38,0,0,.11.17.11.17l3.44,4.56s-.06-.08-.06-.08c.33.4.66.8,1,1.21,0,0-.12-.11-.12-.11.49.76.99,1.52,1.48,2.28l.29.35c.77.82,1.54,1.64,2.31,2.46,0,0-.08-.09-.08-.09.33.41.67.81,1,1.22,0,0-.13-.11-.13-.11.46.57.92,1.14,1.38,1.71.41,2.12,2.76,1.99,3.89,3.42,7.66,9.71,17.75,16.27,28.66,21.71,1.84,1.61,4,2.61,6.34,3.24l-.13-.11c.47.93,1.42.79,2.21.99l-.12-.1c1.43,1.33,3.24,1.77,5.05,2.21l-.12-.12c7.53,3.73,15.6,5.63,23.81,7.07,4.07,1.23,8.18,2.17,12.48,1.64,1.21,1.01,2.66,1,4.15,1.14,16.46,1.56,32.76.46,48.87-3.06,16.28-3.56,31.96-8.78,46.15-17.83l-.09.09c.79-.18,1.71-.15,2.03-1.16l-.08.07c1.95-.6,3.62-1.64,5.05-3.09l-.07.05c.42-.3.84-.6,1.26-.9l-.09.11c.37-.18.75-.36,1.12-.54.21-.01.36-.11.47-.3,1.47-1.11,2.94-2.21,4.41-3.32l-.08.07c1.66-.63,2.99-1.69,4.06-3.09l-.08.07c.42-.3.83-.6,1.25-.9l-.04.06c.37-.28.74-.55,1.1-.83l.13-.06c.87-.8,1.73-1.59,2.6-2.39l-.08.07c1.46-1.2,2.93-2.41,4.39-3.61l.13-.14.79-.67c.26-.04.41-.19.45-.45ZM327.13,372.96c-.36-.37-.72-.74-1.08-1.11l.09.07c-.69-.68-1.38-1.37-2.07-2.05l.07.09c-.36-.37-.72-.74-1.08-1.12l.09.08c-.7-.7-1.4-1.4-2.1-2.1-.62-.62-1.25-1.24-1.87-1.85-.38-.36-.76-.72-1.14-1.08l.08.06c-.45-.49-.9-.98-1.35-1.48l-.27-.26c-.99-1.5-1.99-1.76-2.99,0-.22.09-.34.25-.36.49l-.15.28c-8.1,10.3-16.82,19.99-27.37,27.88-11.52,8.62-23.37,16.71-36.63,22.49-5.06,2.17-10.12,4.34-15.17,6.51l.11-.1c-6.7,2.05-13.39,4.1-20.09,6.14-2.63.75-5.25,1.5-7.88,2.25-7.19-.95-14.09,1.39-21.17,1.91-12.29.91-24.52-.23-36.78-.22l.11.08c-4.22-1.6-8.66-1.8-13.1-2.06l.08.07c-7.84-2.98-15.97-4.99-24.07-7.09l.09.08c-2.29-2.12-5.37-2.53-8.1-3.69-1.89-.52-3.92-.74-5.62-1.62-2.19-1.13-3.43-.62-4.32,1.45-6.25,14.56-12.54,29.11-16.16,44.74,1.7.85,3.15,1.58,4.61,2.31,1.28.82,2.56,1.64,3.84,2.46l.28.09,1.29.51-.1-.08c.37.98,1.29.94,2.09,1.11l-.12-.09c.38.99,1.32.91,2.12,1.09l-.11-.09c.39,1.02,1.35.86,2.14,1.03l-.1-.07c2.08,1.66,4.52,2.49,7.06,3.11,0,0-.1-.08-.1-.08,2,1.91,4.63,2.22,7.16,2.8,4.22,1.36,8.4,2.89,12.67,4.06,13.27,3.64,26.93,4.85,40.56,5.93,7.95.63,16.02.37,23.84-1.84,2.64-.07,5.29-.14,7.93-.21,2.71-.55,5.59-.27,8.09-1.78l-.09.07c10.02-.42,19.45-3.59,28.98-6.26,4.15-1.32,8.2-3.39,12.21-4.47,9.19-2.46,17.44-6.93,25.94-10.7,14-6.2,26.34-15.36,38.31-24.89,14.13-11.25,26.86-23.88,37.29-38.7,1.1-1.56,3.16-3.5,1.48-5.15-3.81-3.71-5.66-9.01-10.2-12.04l-.18-.27c-.05-.23-.19-.36-.42-.41-.24-.24-.48-.47-.72-.71l-.21-.32c-.89-.91-1.79-1.81-2.68-2.72l-.3-.32c-.49-.43-.97-.87-1.46-1.3l.06.08c-.36-.37-.72-.73-1.08-1.1l.09.09ZM361.21,537.07l-.13.14c.38-.38.76-.76,1.13-1.14l-.09.12c.68-.7,1.37-1.4,2.05-2.09l-.1.09c.52-.19.96-.45.8-1.13,9.23-9.14,17.93-18.72,25.33-29.46,2.89-4.19,4.76-8.45,3.58-13.61-1.83-11.31-4.69-22.33-8.91-32.99-1.72-4.33-3.45-8.67-5.42-13.63-1.43,1.93-2.37,3.23-3.35,4.52-10.15,13.38-19.91,27-33.01,37.95-17.24,14.41-35.04,27.9-55.44,37.5-10.51,4.94-20.31,11.5-31.77,14.35-11.86,3.83-23.7,7.77-35.9,10.46-11.54,2.53-23.15,4.6-35,5-9.4,1.19-18.78.58-28.19.02-5.6-.33-11.12-2.09-16.8-1.03-.27-.13-.55-.19-.85-.18-.36-.96-1.22-.9-2.02-1.06-15.65-3.07-30.92-7.43-45.71-13.44h-.1c-1.39-.57-2.78-1.16-4.18-1.75l.09.09c-.43-.97-1.37-.83-2.17-1.02l.11.09c-.38-.98-1.31-.92-2.11-1.09,0,0,.11.09.11.09-1.32-.75-2.64-1.51-3.96-2.26l.08.09c-.88-.97-1.89-1.71-3.23-1.89l.1.08c-.44-.89-1.15-1.41-2.11-1.6-3.02.16-2.07,2.48-2,4.03.28,7.02,1.89,13.86,3.23,20.72,2.29,8.91,4.46,17.87,8.5,26.21,0,0-.12-.1-.12-.1.18.61.37,1.23.55,1.84.43,1.13.5,2.44,1.63,3.21l-.06-.06c.81,1.8,2.37,2.58,4.16,3.02l-.09-.08c.35.98,1.27.97,2.07,1.17l-.13-.11c.38.95,1.3.94,2.09,1.17l-.13-.11c1.74,1.62,3.89,2.45,6.13,3.08l-.11-.1c.44.96,1.37.84,2.18,1.01l-.11-.09c2.1,1.63,4.57,2.41,7.08,3.13,0,0-.11-.09-.11-.09.46.91,1.31.86,2.14.88,5.11,2.63,10.57,4.28,16.07,5.81,7.82,2.74,16.01,3.99,24,6.02,7.38.11,14.54,2.71,22,1.98,3.1.06,6.21.33,9.29.12,4.59-.31,9.29,1.09,13.77-.91,3.99-.08,7.97-.15,11.96-.23,6.33-.99,12.65-1.99,18.98-2.98,4.44-.93,8.95-1.62,13.31-2.85,10.8-3.04,21.8-5.55,31.81-10.91l-.1.08c1.06-.31,2.41.28,3.15-1.03l-.12.08c.91-.16,1.93-.06,2.49-1.05,1.76-2.77,5.41-1.19,7.49-3.24,3.64-1.04,6.99-2.7,10.13-4.81l-.1.08c.79-.18,1.67-.21,2.07-1.11l-.08.06c1.55-.32,2.96-.9,4.06-2.08l-.07.05c1.32-.17,2.37-.84,3.29-1.76l-.07.09c.68-.4,1.35-.79,2.03-1.19l-.11.1c.79-.22,1.65-.32,2-1.23l-.09.08c1.98-.56,3.73-1.51,5.17-2.99l-.11.1c.79-.2,1.65-.29,2-1.23l-.08.07c4-1.88,7.74-4.17,11.1-7.06l-.09.08c1.27-.33,2.41-.86,3.09-2.08l-.09.07c.45-.27.9-.54,1.34-.8l-.06.12,1.79-1.4-.1.07c.47-.35.93-.7,1.4-1.05,7.09-4.29,13.52-9.45,19.57-15.09.7-.65,1.4-1.3,2.1-1.96l-.08.06c.37-.36.73-.73,1.1-1.09l-.07.09c.7-.68,1.39-1.36,2.09-2.04,0,0-.1.08-.1.08.38-.37.76-.73,1.14-1.1,0,0-.13.13-.13.13.38-.37.76-.75,1.15-1.12l-.13.14c.38-.38.76-.76,1.14-1.14ZM375.94,594.81c-.41.37-.83.75-1.24,1.12-.8.58-1.66,1.09-2.38,1.75-24.82,22.33-52.8,39.72-83.28,53.19-.87-1.38-1.82-.12-2.49.13-11.35,4.25-22.97,7.58-34.63,10.79-5.63,2.92-12.12,2.36-17.97,4.39-5.65-.73-11.22.41-16.83.68-21.26,1-42.35-.34-63.09-5.5-1.73-.54-3.4-.64-6.17.77,15.41,12.03,31.22,21.34,49.15,26.92.54.33,1.05.78,1.63.96,21.47,6.67,43.28,10.88,65.85,7.94,13.37-1.74,26.49-4.71,38.71-10.76l-.1.09c.73-.31,1.47-.62,2.2-.93l-.07.08c1.35-.6,2.7-1.2,4.04-1.8l.3-.06c2.6-1.36,5.42-2.33,7.62-4.39l-.09.09c1.95-.61,3.7-1.55,5.07-3.11l-.09.09c1.34-.23,2.4-.88,3.11-2.06l-.09.08c.43-.26.87-.51,1.3-.77,0,0,.02.05.02.05.57-.47,1.14-.94,1.71-1.42l-.08.07c1.12-.77,2.24-1.55,3.36-2.32.18-.06.31-.17.4-.33l1.45-1.44c2-.6,3.23-2.24,4.68-3.55,12.39-11.21,23.38-23.61,32.07-37.95,1.2-.86,1.95-2.01,2.25-3.45l-.09.09c.79-1.16,1.58-2.32,2.36-3.48l.25-.42c1.58-2.96,3.17-5.91,4.75-8.87v-.16c1.51-2.61,3-5.23,3.69-8.21l-.08.09c4.32-8.06,6.65-16.84,9.01-25.72-1.41,1.78-2.82,3.55-4.24,5.33-1.03,1.05-2.07,2.11-3.1,3.16-.62.62-1.24,1.25-1.86,1.87-.37.38-.74.75-1.11,1.13l.07-.09c-.68.69-1.36,1.38-2.04,2.07,0,0,.05-.05.05-.05l-2.08,2.04s.09-.07.09-.07c-.37.37-.74.73-1.1,1.1l.1-.1c-.38.36-.76.72-1.14,1.08l.13-.12ZM338.67,346.12c.82.88,1.48,1.61,2.16,2.32,18.88,19.88,36.78,40.57,50.7,64.33,1.84,3.14,3.84,3.79,7.08,3.74,17-.27,33.4-3.94,49.62-8.54,39.73-11.27,75.48-29.49,102.11-62,21.52-26.27,33.24-56.34,28.49-90.87-2.82-20.5-13.37-36.11-33.74-43.37-18.25-6.51-36.47-4.28-54.56.97-29.31,8.51-53.06,26.08-75.06,46.39-15.42,14.24-29.87,29.45-43.46,45.45-11.47,13.52-22.69,27.24-33.35,41.58ZM407.18,443.24c5.23,12.17,8.83,24.46,11.49,36.98,2.68,12.61,5.28,25.26,5.47,38.23.05,3.15,1.75,4.53,4.53,5.45,13.54,4.48,27.44,5.82,41.61,5.12,14.08-.69,27.27-4.45,39.06-12.14,19.89-12.97,23.86-34.85,10.08-54.09-10.68-14.92-25.94-22.62-43.27-26.72-6.56-1.55-12.89-3.48-20.16-1.33-15.67,4.63-31.88,7.01-48.81,8.5Z"/>
  <path class="cls-9" d="M100.53,386.1c-10.91-5.44-21-12-28.66-21.71-1.13-1.43-3.48-1.3-3.89-3.42-.07-.89-.22-1.7-1.38-1.71,0,0,.13.11.13.11,0-.69-.33-1.09-1-1.22,0,0,.08.09.08.09.08-1.61.04-3.12-2.31-2.46,0,0-.29-.35-.29-.35.77-1.58-.27-1.98-1.48-2.28,0,0,.12.11.12.11-.33-.4-.66-.8-1-1.2,0,0,.06.08.06.08-.44-2.05-.33-4.53-3.44-4.56,0,0-.11-.17-.11-.17.82-1.59.12-2.24-1.44-2.37,0,0,.03.05.03.05,0-.89-.12-1.73-1.18-1.99,0,0,.09.1.09.1.09-.98-.02-1.83-1.25-1.97,0,0,.09.08.09.08-.18-3.76-2.17-6.88-3.66-10.16-5.57-12.21-8.3-25.09-9.01-38.42-.87-16.16,1.09-32.05,4.99-47.72,4.07-9.92,7.19-20.26,13.12-29.34.75-1.15.97-2.45.76-3.81,0,0-.08.1-.08.1,1.02-.32,1.15-1.14,1.13-2.03,0,0-.04.05-.04.05,2.22-.08,2.13-1.58,1.94-3.15,0,0-.08.09-.08.09,2.84-1.11,3.95-3.36,4.1-6.24,3.22-5.87,7.55-10.88,12.1-15.73.21.11.41.23.62.34-.15-.2-.3-.4-.45-.6.04-.19.15-.33.33-.42,1.44.56,1.4-.47,1.47-1.38,0,0-.07.09-.07.09.37-.37.73-.73,1.1-1.1,0,0-.1.1-.1.1.36-.37.72-.75,1.08-1.12,0,0-.11.11-.1.11.37-.39.74-.78,1.11-1.17.28-.28.56-.56.84-.84,2.1-.2,3.82-.78,3.42-3.45,0,0,.29-.27.3-.27,2.37.6,2.86-1.13,3.41-2.77,8.88-8.09,18.72-14.6,30.15-18.56,1.18-.41,2.19-1.29,3.28-1.96,11.24-3.33,22.49-6.66,33.73-10,5.82.08,11.14-2.91,16.97-2.77,6.58,1.85,13.3.34,19.94.81,1.09.33,2.19.98,3.27.94,8.43-.29,16.57,1.67,24.77,3.12,2.39.42,4.72,1.6,7.22.53,0,0,.14-.14.14-.14,2.68,2.97,6.06,3.72,9.87,3.13,0,0,.15-.11.15-.11.96,3.18,3.52,2.46,5.81,2.37,0,0-.12-.1-.11-.1.96,2,2.75,2.26,4.67,2.23,6.29,4.5,14.09,5.99,20.42,10.6,7.84,5.72,13.56,13.52,20.85,19.72-.09,1.53.14,2.8,2.15,2.58,0,0-.1-.08-.1-.08.34.39.67.79,1,1.18,0,0-.05-.07-.05-.07-.07,1.55.54,2.63,2.12,3.03,0,0-.07-.08-.07-.08-.14,1.59.48,2.67,2.08,3.08,0,0-.08-.09-.08-.09.2,2.21.69,4.24,3.15,5.03,0,0-.08-.09-.08-.09-.11,1.8-.52,3.78,2.36,3.64,0,0,.06.27.06.27,1.33,7.7,5.48,14.28,8.45,21.34,1.65,9.66,3.3,19.31,4.96,28.97.57,9.03-.87,17.99-1,27-1.9,6.26-3.66,12.55-3.91,19.14,0,0,.08-.1.08-.1-3.99,8.8-7.57,17.74-10.09,27.09,0,0,.06-.08.06-.08-2.07.63-2.23,2.25-2.1,4.03,0,0,.04-.06.04-.06-2.21,1-3.39,2.6-2.98,5.13,0,0,.07-.09.07-.09-2.34.89-3.44,2.54-3.08,5.08,0,0,.07-.08.07-.08-1.9,1.11-3.94,2.12-3.19,4.94-4.25,6.34-9.03,12.22-14.95,17.11-.19-.13-.38-.26-.57-.38.13.2.27.4.4.6-.04.26-.19.41-.46.45-.77-.37-.98-.08-.79.67,0,0-.13.14-.13.14-2.59-.17-3.47,1.75-4.39,3.61,0,0,.08-.07.08-.07-1.6,0-2.99.22-2.6,2.39,0,0-.13.06-.13.06-.76-.25-1.1.07-1.1.83,0,0,.04-.06.04-.06-.69-.08-1.1.23-1.25.9,0,0,.08-.07.08-.07-2.27-.18-3.46,1.07-4.06,3.09,0,0,.08-.07.08-.07-2.06.32-4.55.07-4.41,3.32-.1.19-.26.28-.47.3-.68-.46-.98-.14-1.12.54,0,0,.09-.11.09-.11-.42.3-.84.6-1.26.9,0,0,.07-.05.07-.05-2.51-.32-4.17.75-5.05,3.09,0,0,.08-.07.08-.07-.93-.06-1.76.06-2.03,1.16,0,0,.09-.09.09-.09-2.89-.8-4.57,1.61-6.74,2.63-22.45,10.6-45.77,17.48-70.86,17.19-7.19-.08-14.38-.06-21.58-.08-4.3.52-8.41-.42-12.48-1.64.16-.26.35-.51.48-.79.03-.06-.11-.29-.2-.31-5.53-1.43-11.08-2.77-16.58-4.28-2.48-.68-4.68-2.55-7.5-1.69,0,0,.12.12.12.12-1.04-2.22-2.97-2.37-5.05-2.21,0,0,.12.1.12.1-.38-1.12-1.24-1.17-2.21-.99,0,0,.13.11.13.11-1.47-2.34-3.5-3.58-6.34-3.24ZM118.91,221.25c-.46-.36-.91-.73-1.37-1.09-4.46-3.29-9.2-2.81-14.02-1-.5.31-1,.62-1.5.94l.07-.04c-.91,0-1.73.13-1.98,1.21l.14-.15c-.39.37-.78.74-1.18,1.11-.28.28-.56.55-.84.83-.38.38-.75.77-1.13,1.15l.13-.11c-1.18.35-2.15.84-1.56,2.36l-.09.15c-1.46-.3-1.43.66-1.37,1.64l.1-.12c-1.11.27-1.25,1.09-1.18,2.04l.08-.1c-1.05.36-1.14,1.19-1.06,2.12l.08-.1c-2.3.53-2.33,2.67-2.77,4.29-2.1,7.74-2.22,15.6-.38,23.38.75,3.17,1.16,6.92,5.16,8.21.62.62,1.24,1.23,1.86,1.85-.11,2.03,1.19,2.27,2.76,2.16,2.68,1.53,5.15,2.66,8.55,1.33,9.08-3.54,14.91-9.63,16.79-19.3.53-.33,1.42-.56,1.54-1,2.03-7.61,1.98-15.23-.19-22.81-.26-.92-.77-1.86-2.02-1.82l.04-.03c1.17-3.53-1.28-4.89-3.74-6.24l.12.12c-.38-.36-.77-.73-1.15-1.09,0,0,.15.13.15.13ZM115.73,311.33c-.3-.42-.6-.85-.9-1.27l.07.08c.05-.95-.07-1.79-1.24-1.96l.09.08c-.25-2.31-.25-4.78-3.27-5.43-.15-.1-.25-.23-.31-.39.32-3.36-2.52-3.38-4.31-3.3-3.03.14-6.48.29-7.67,4.16l.12-.13c-2.62.67-3.5,2.45-3.21,4.99-.62,3.66.97,6.75,2.55,9.85,6.03,11.87,15.33,20.3,27.32,25.84,3.59,1.66,6.59,4.91,11.07,4.31.36.26.73.52,1.09.78l-.1-.09c1.23,1.61,3.15,1.76,4.89,2.08,11.82,2.22,23.49,1.31,34.85-2.44,5.11-1.69,10.42-3.33,14.18-7.67l-.09.08c1.55-.23,3.43,0,3.4-2.44l.35-.26c1.66,1.04,2.21.23,2.3-1.37l-.06.06c1.68.15,2.73-.61,3.18-2.23,4.56-2.54,6.9-6.94,9.18-11.28,2.12-4.04.99-9.66-2.13-12.15-3.92-3.13-7.26-1.94-11.18.67-3.58,2.38-6.27,5.58-9.55,8.18-1.63-.12-2.83.41-3.26,2.13l.1-.09c-1.59-.33-2.79.53-4.18,1.13-14.39,6.26-28.94,7.67-43.81,1.44-2.38-1-4.64-2.69-7.46-2.49l.09.1c-.32-2.22-1.97-2.33-3.69-2.32-2.39-2.41-4.78-4.81-7.16-7.22-.06-.85-.3-1.54-1.34-1.52l.1.07ZM199.25,240.08c-1.14.34-1.21,1.19-1.06,2.16l.11-.14c-3,2.32-3.15,5.66-3.27,9.02.01.31-.05.6-.18.87-1.88,4.89-.51,9.96-.77,14.94-.08,1.6.48,3.25,2.3,3.95,1.36,2.37,2.39,4.9,4.25,7,4.62,5.23,7.85,6.27,13.37,4.08,1.91,1.8,2.33.14,2.87-1.24l-.09.09c1.61.22,3.14.32,3.12-2l-.07.07c1.48.1,2.16-.62,2.12-2.08.28-.29.56-.58.84-.86.36-.4.72-.8,1.08-1.2l-.14.12c1.72-.35,2.34-1.44,2.07-3.11l-.1.11c1.13-.24,1.26-1.08,1.19-2.03l-.07.09c3.89-2.18,3.72-6.35,4.58-9.87,2.1-8.58,2.63-17.13-2.4-25.09-.41-.29-.81-.57-1.22-.86l.07.07c.14-1.65-.37-2.81-2.24-2.94l.13.12c-.1-1.83-1.26-2.34-2.86-2.31l.08.06c-.25-.6-.69-.87-1.35-.74l.08.1c-4-4.16-10.34-3.38-14.56,1.78,0,0,.12-.13.12-.13-.4.36-.8.72-1.2,1.08l-.88.84c-1.5-.03-2.17.73-2.1,2.2-.2.29-.41.58-.61.86-1.78.31-2.53,1.36-2.27,3.14l.12-.13c-1.16.27-1.27,1.12-1.16,2.09l.1-.12Z"/>
  <path class="cls-10" d="M338.67,346.12c10.66-14.34,21.88-28.06,33.35-41.58,13.58-16.01,28.04-31.21,43.46-45.45,21.99-20.32,45.75-37.89,75.06-46.39,18.09-5.25,36.31-7.48,54.56-.97,20.37,7.26,30.92,22.87,33.74,43.37,4.75,34.53-6.96,64.6-28.49,90.87-26.64,32.51-62.38,50.73-102.11,62-16.23,4.6-32.63,8.27-49.62,8.54-3.24.05-5.24-.6-7.08-3.74-13.93-23.76-31.82-44.44-50.7-64.33-.67-.71-1.33-1.43-2.16-2.32Z"/>
  <path class="cls-9" d="M139.15,551.96c.3,0,.58.05.85.18.75.29,1.48.71,2.25.85,14.16,2.5,28.46,2.09,42.74,1.99,3.12-.31,6.26-.7,9.35-1.1,8.63-1.13,17.44-1.53,25.66-4.85,10.44-1.08,20.12-5.08,30.09-7.95,2.17-.62,4.54-1.11,5.8-3.39,11.46-2.86,21.26-9.41,31.77-14.35,20.4-9.59,38.2-23.09,55.44-37.5,13.1-10.95,22.86-24.57,33.01-37.95.97-1.28,1.92-2.59,3.35-4.52,1.97,4.96,3.7,9.29,5.42,13.63-1.47,1.27-.16,2.51.19,3.62,2.8,8.83,5.29,17.74,6.89,26.87.22,1.24.34,2.31,1.83,2.5,1.18,5.16-.69,9.42-3.58,13.61-7.4,10.73-16.1,20.32-25.33,29.46-.27.38-.54.75-.8,1.13,0,0,.1-.09.1-.09-1.48-.09-2.17.61-2.05,2.09,0,0,.09-.12.09-.12-.38.38-.76.76-1.13,1.14,0,0,.13-.14.13-.14-.38.38-.76.76-1.14,1.14,0,0,.13-.14.13-.14-.38.37-.76.75-1.15,1.12,0,0,.13-.13.13-.13-.38.37-.76.73-1.14,1.1,0,0,.1-.08.1-.08-1.43-.07-2.14.6-2.09,2.04,0,0,.07-.09.07-.09-.37.36-.73.73-1.1,1.09,0,0,.08-.06.08-.06-1.08.24-2.9-.3-2.1,1.96-6.06,5.64-12.48,10.8-19.57,15.09-.47.35-.93.7-1.4,1.05,0,0,.1-.07.1-.07-.98-.02-1.83.12-1.79,1.4,0,0,.06-.12.05-.12-.68-.12-1.12.17-1.34.81,0,0,.09-.07.09-.07-1.6-.15-2.66.49-3.09,2.08,0,0,.09-.08.09-.08-4.41,1.24-8.39,3.15-11.1,7.06,0,0,.08-.07.08-.07-.94-.04-1.78.08-2,1.23,0,0,.11-.1.11-.1-2.33-.04-4.23.64-5.17,2.99,0,0,.09-.08.09-.08-.96-.07-1.8.06-2,1.23,0,0,.11-.1.1-.1-1.02-.19-1.88-.11-2.03,1.19,0,0,.07-.09.07-.09-1.7-.54-2.71.21-3.29,1.76,0,0,.07-.05.07-.05-1.78-.15-3.41.02-4.06,2.08,0,0,.08-.06.08-.06-.9-.02-1.74.07-2.07,1.11,0,0,.1-.08.1-.08-3.95.39-7.47,1.69-10.12,4.81-2.08,2.05-5.72.47-7.49,3.24-1.02-.09-2.01-.12-2.49,1.05,0,0,.12-.08.12-.08-1.19-.08-2.45-.4-3.15,1.03,0,0,.1-.08.1-.08-15.13,3.98-29.83,9.5-45.12,12.92-5.95-.28-11.58,2.1-17.5,2.12-.95,0-1.31.85-1.48,1.71-3.99.08-7.97.15-11.96.23-7.68-.01-15.37-.02-23.05-.04-7.24-1.72-14.8-1.03-22-3-8-1.67-16-3.35-24.01-5.02-4.77-2.41-9.8-4.06-15.06-5.03-.79-1.26-2-.91-3.14-.81,0,0,.11.09.11.09-1.46-3.07-4.36-2.89-7.08-3.13,0,0,.11.09.11.08-.37-1.1-1.23-1.16-2.18-1.01,0,0,.11.1.11.1-1.13-2.84-3.42-3.37-6.13-3.07,0,0,.13.11.13.11-.25-1.19-1.11-1.29-2.09-1.17,0,0,.13.11.13.11-.28-1.11-1.12-1.23-2.07-1.17,0,0,.09.08.09.08-.76-1.88-1.91-3.21-4.16-3.02,0,0,.06.06.06.06.15-1.19.4-2.41-.87-3.21,0-.93-.2-1.71-1.31-1.85,0,0,.12.1.12.1-.06-6.78-3.98-12.5-5.29-18.96-.51-2.51-.06-5.78-3.22-7.24-1.34-6.87-2.95-13.7-3.23-20.72-.06-1.55-1.01-3.87,2-4.03.09,1.35.9,1.74,2.11,1.6,0,0-.1-.08-.1-.08.49,1.64,1.53,2.33,3.23,1.89,0,0-.08-.09-.08-.09.35,2.45,2.1,2.44,3.96,2.26,0,0-.11-.09-.11-.09.33,1.08,1.17,1.18,2.11,1.09,0,0-.11-.09-.11-.09.37,1.09,1.21,1.18,2.17,1.02,0,0-.09-.09-.09-.09.66,2.33,2.18,2.6,4.18,1.76,0,0,.1-.01.1-.01.12,2.23,2.15,2.42,3.53,2.9,7.61,2.65,15.21,5.42,22.98,7.53,6.94,1.88,13.85,4.35,21.23,4.06Z"/>
  <path class="cls-9" d="M248.98,413.35c13.26-5.78,25.11-13.87,36.63-22.49,10.55-7.89,19.26-17.59,27.37-27.88.21.1.42.2.62.29-.16-.19-.31-.38-.47-.57.01-.24.13-.4.36-.49,1,.6,1.99.61,2.99,0,0,0,.27.26.27.26-.59,1.45.47,1.38,1.35,1.47,0,0-.08-.06-.08-.06.38.36.76.72,1.14,1.08.62.62,1.25,1.24,1.87,1.85-.03,1.43.63,2.17,2.1,2.1,0,0-.09-.08-.09-.08.36.37.72.74,1.08,1.12,0,0-.07-.09-.07-.09-.05,1.43.63,2.12,2.07,2.05,0,0-.09-.07-.09-.07.36.37.72.74,1.08,1.11,0,0-.09-.09-.09-.09.36.37.72.73,1.08,1.1,0,0-.06-.08-.06-.08.1.86.03,1.92,1.46,1.3,0,0,.3.32.3.32-.4,2.19.55,3.04,2.69,2.72,0,0,.21.32.21.32-.32.83-.07,1.05.73.71.23.05.36.19.41.41-.15.2-.3.4-.45.61.21-.11.42-.23.63-.34,4.54,3.02,6.39,8.33,10.2,12.04,1.69,1.64-.38,3.59-1.48,5.15-10.43,14.82-23.16,27.45-37.29,38.7-11.97,9.53-24.3,18.69-38.31,24.89-8.5,3.76-16.75,8.23-25.94,10.7-4.01,1.07-8.06,3.15-12.21,4.47-10.02.43-19.41,3.76-28.98,6.26,0,0,.09-.07.09-.07-2.69.64-6.07-1.88-8.09,1.78-2.64.07-5.29.14-7.93.21-26.14.8-52-.81-77.08-9.05-2.25-1.16-4.45-2.47-7.16-1.9,0,0,.1.08.1.08-1.51-2.96-4.37-2.83-7.06-3.11,0,0,.1.07.1.07-.38-1.04-1.23-1.1-2.14-1.03,0,0,.11.09.11.09-.34-1.07-1.18-1.17-2.12-1.09,0,0,.12.09.12.09-.32-1.07-1.17-1.18-2.09-1.11,0,0,.1.08.1.08-.25-.62-.64-.89-1.29-.51,0,0-.28-.09-.28-.09-.18-2.54-2.13-2.31-3.84-2.46-1.45-.73-2.9-1.46-4.61-2.31,3.62-15.63,9.91-30.18,16.16-44.74.89-2.07,2.13-2.58,4.32-1.45,1.7.88,3.74,1.1,5.62,1.62,1.68,3.46,5.03,3.28,8.1,3.69,0,0-.09-.08-.09-.08,7.4,4.5,15.57,6.36,24.07,7.09,0,0-.08-.07-.08-.07,4.1,2.37,8.59,2.25,13.1,2.06,0,0-.11-.08-.1-.08.58,1,1.55,1.03,2.56,1.17,9.53,1.29,19.15,1.48,28.68.84,8.94-.6,18.02-.93,26.7-3.69,2.63-.75,5.25-1.5,7.88-2.25,7.22-.34,14.02-2.03,20.09-6.15,0,0-.11.1-.11.1,5.77-.5,11.02-2.22,15.17-6.51Z"/>
  <path class="cls-1" d="M407.18,443.24c16.94-1.49,33.14-3.88,48.81-8.5,7.27-2.15,13.6-.22,20.16,1.33,17.33,4.11,32.59,11.81,43.27,26.72,13.78,19.24,9.81,41.12-10.08,54.09-11.79,7.69-24.98,11.44-39.06,12.14-14.18.7-28.07-.64-41.61-5.12-2.78-.92-4.48-2.3-4.53-5.45-.19-12.97-2.79-25.63-5.47-38.23-2.66-12.52-6.26-24.8-11.49-36.98Z"/>
  <path class="cls-9" d="M289.04,650.86c30.48-13.47,58.46-30.85,83.28-53.19.73-.66,1.59-1.17,2.38-1.75.41-.37.83-.75,1.24-1.12,0,0-.13.12-.13.12.38-.36.76-.72,1.14-1.08,0,0-.1.1-.1.1.37-.37.73-.73,1.1-1.1,0,0-.09.07-.09.07,1.43.08,2.11-.62,2.08-2.04,0,0-.05.05-.05.05,1.41.03,2.11-.64,2.04-2.07,0,0-.07.09-.07.09.37-.38.74-.75,1.1-1.13.62-.62,1.24-1.25,1.86-1.87,1.53.1,2.57-.59,3.17-1.98,1.71,1.8-.2,3.3-.5,4.89-.91,4.93-4.41,9.08-4.35,14.32,0,0,.08-.09.08-.09-3.39,1.76-3.66,4.93-3.68,8.21,0,0,0,.16,0,.16-3.02,2.19-4.88,5-4.75,8.87,0,0-.25.42-.25.42-2.47.02-2.25,1.86-2.36,3.48,0,0,.09-.09.09-.09-2,.34-2.34,1.75-2.25,3.45-8.69,14.34-19.68,26.74-32.07,37.95-1.45,1.31-2.68,2.95-4.68,3.55-.87.09-2-.09-1.45,1.44-.09.16-.23.27-.4.33-2.23-.84-2.67.92-3.36,2.32,0,0,.08-.07.08-.07-.97-.01-1.87.07-1.71,1.42,0,0-.02-.05-.02-.05-.7-.19-1.11.1-1.3.77,0,0,.09-.08.09-.08-1.63-.21-2.71.42-3.11,2.06,0,0,.09-.09.09-.09-2.24.14-4.24.67-5.07,3.11,0,0,.09-.09.09-.09-3.35.05-6.03,1.27-7.62,4.39,0,0-.3.06-.31.06-1.96-.76-3.3-.16-4.04,1.8,0,0,.07-.08.07-.08-.99-.28-1.84-.25-2.2.93,0,0,.1-.09.1-.09-2.28-.49-4.25.62-6.23,1.36-25.04,9.34-50.6,10.84-76.74,5.59-7.78-1.56-15.25-4.49-23.23-5.09-17.93-5.58-33.74-14.89-49.15-26.92,2.77-1.41,4.44-1.31,6.17-.77.22,1.53,1.43,1.48,2.58,1.77,22.3,5.67,44.92,6.95,67.73,4.64,3.15-.32,6.62.14,9.62-1.58,5.85-2.02,12.33-1.46,17.97-4.39.37.3.82.92,1.1.86,12.34-2.89,24.51-6.32,36.02-11.77Z"/>
  <path class="cls-21" d="M197.02,689.03c7.98.6,15.45,3.53,23.23,5.09,26.14,5.25,51.7,3.75,76.74-5.59,1.99-.74,3.95-1.85,6.23-1.36-12.22,6.05-25.34,9.02-38.71,10.76-22.57,2.94-44.39-1.26-65.85-7.94-.59-.18-1.09-.63-1.63-.96Z"/>
  <path class="cls-12" d="M46.02,245c-3.9,15.67-5.85,31.56-4.99,47.72.71,13.33,3.45,26.21,9.01,38.42,1.49,3.28,3.48,6.4,3.66,10.16-7.01-10.46-10.2-22.35-12.58-34.48-3.94-20.07-1.69-39.87,3.03-59.52.19-.79.63-1.53.95-2.29,0,0,.45,0,.45,0h.45Z"/>
  <path class="cls-6" d="M150.04,400.93c7.19.02,14.39,0,21.58.08,25.09.29,48.41-6.59,70.86-17.19,2.17-1.02,3.84-3.44,6.74-2.63-14.18,9.05-29.86,14.27-46.15,17.83-16.12,3.52-32.42,4.62-48.87,3.06-1.49-.14-2.94-.13-4.15-1.14Z"/>
  <path class="cls-15" d="M233.95,666.17c-2.99,1.72-6.47,1.26-9.62,1.58-22.8,2.31-45.43,1.03-67.73-4.64-1.14-.29-2.36-.24-2.58-1.77,20.74,5.17,41.83,6.5,63.09,5.5,5.61-.26,11.18-1.41,16.83-.68Z"/>
  <path class="cls-25" d="M107,475c25.08,8.24,50.94,9.85,77.08,9.05-7.82,2.21-15.89,2.47-23.84,1.84-13.63-1.08-27.29-2.3-40.56-5.93-4.27-1.17-8.45-2.7-12.67-4.06,0-.3,0-.6,0-.9Z"/>
  <path class="cls-20" d="M205.96,428.16c-8.68,2.76-17.76,3.09-26.7,3.69-9.53.64-19.15.45-28.68-.84-1.01-.14-1.98-.16-2.56-1.17,12.26,0,24.49,1.13,36.78.22,7.07-.52,13.97-2.86,21.17-1.91Z"/>
  <path class="cls-18" d="M139.15,551.96c-7.39.29-14.29-2.17-21.23-4.06-7.77-2.11-15.37-4.88-22.98-7.53-1.38-.48-3.41-.68-3.53-2.9,14.79,6,30.06,10.37,45.72,13.43.8.16,1.66.1,2.02,1.06Z"/>
  <path class="cls-24" d="M227,605.99c15.3-3.42,29.99-8.93,45.12-12.92-10.01,5.36-21.01,7.87-31.81,10.91-4.36,1.23-8.87,1.92-13.31,2.85,0-.28,0-.57,0-.85Z"/>
  <path class="cls-22" d="M185,554.97c-14.28.1-28.58.51-42.74-1.99-.78-.14-1.5-.56-2.25-.85,5.68-1.06,11.2.7,16.8,1.03,9.42.56,18.79,1.17,28.19-.02v1.83Z"/>
  <path class="cls-20" d="M289.04,650.86c-11.51,5.45-23.68,8.88-36.02,11.77-.28.07-.73-.56-1.1-.86,11.66-3.22,23.29-6.55,34.64-10.79.67-.25,1.61-1.51,2.49-.13Z"/>
  <path class="cls-2" d="M255.9,537.68c-1.25,2.28-3.63,2.77-5.8,3.39-9.97,2.87-19.65,6.87-30.09,7.95,0-.29,0-.59-.01-.88,12.2-2.69,24.03-6.63,35.9-10.46Z"/>
  <path class="cls-17" d="M220,548.14c0,.29,0,.59.01.88-8.23,3.32-17.04,3.72-25.66,4.85-3.09.41-6.23.79-9.35,1.1,0-.61,0-1.22,0-1.83,11.85-.4,23.46-2.48,35-5Z"/>
  <path class="cls-14" d="M159.08,141.95c-11.24,3.33-22.49,6.66-33.73,10,10.28-5.92,21.7-8.34,33.14-10.67.14-.03.39.44.59.68Z"/>
  <path class="cls-7" d="M46.02,245h-.45s-.45,0-.45,0c3.27-11.79,8.17-22.85,14.79-33.15.21,1.36,0,2.66-.76,3.81-5.93,9.08-9.05,19.43-13.12,29.34Z"/>
  <path class="cls-13" d="M231.25,144.57c-2.5,1.08-4.83-.1-7.22-.53-8.2-1.45-16.34-3.4-24.77-3.12-1.08.04-2.18-.61-3.27-.94,0-.27,0-.54,0-.82,11.9.87,23.82,1.57,35.27,5.4Z"/>
  <path class="cls-6" d="M393.79,489.99c-1.49-.19-1.61-1.26-1.83-2.5-1.6-9.13-4.09-18.04-6.89-26.87-.35-1.11-1.66-2.35-.19-3.62,4.22,10.66,7.08,21.69,8.91,32.99Z"/>
  <path class="cls-7" d="M383.16,603.2c-.06-5.24,3.43-9.4,4.35-14.32.3-1.59,2.2-3.09.5-4.89-.02-.39-.05-.79-.07-1.18,1.41-1.78,2.82-3.55,4.24-5.33-2.36,8.89-4.69,17.67-9.01,25.72Z"/>
  <path class="cls-4" d="M319.01,251c-1.65-9.66-3.3-19.31-4.96-28.97.22,0,.44,0,.66-.02,2.95,9.44,4.55,19.12,5.11,28.99-.27,0-.54,0-.82,0Z"/>
  <path class="cls-17" d="M200.02,482.12c9.57-2.51,18.96-5.84,28.98-6.26-9.53,2.67-18.96,5.84-28.98,6.26Z"/>
  <path class="cls-7" d="M304.09,324.13c2.52-9.34,6.1-18.29,10.09-27.09-1.86,9.59-5.35,18.57-10.09,27.09Z"/>
  <path class="cls-14" d="M75.28,553.04c3.16,1.46,2.71,4.74,3.22,7.24,1.31,6.47,5.23,12.18,5.29,18.96-4.05-8.34-6.21-17.3-8.5-26.21Z"/>
  <path class="cls-20" d="M135.11,427.93c-8.51-.73-16.68-2.59-24.07-7.09,8.1,2.1,16.23,4.11,24.07,7.09Z"/>
  <path class="cls-13" d="M127,601.99c8,1.67,16,3.35,24.01,5.02,0,.61,0,1.23,0,1.84-7.99-2.03-16.18-3.28-24-6.02,0-.28,0-.57,0-.85Z"/>
  <path class="cls-14" d="M113.75,392.21c2.83-.86,5.02,1.01,7.5,1.69,5.51,1.51,11.05,2.86,16.58,4.28.09.02.23.25.2.31-.13.28-.31.53-.48.79-8.21-1.44-16.28-3.35-23.81-7.07Z"/>
  <path class="cls-8" d="M151,608.85c0-.61,0-1.23,0-1.84,7.2,1.97,14.76,1.29,22,3,0,.27,0,.55,0,.82-7.46.72-14.62-1.87-22-1.98Z"/>
  <path class="cls-7" d="M314.71,222.01c-.22,0-.44.01-.66.02-2.97-7.05-7.12-13.63-8.45-21.34,3.97,6.71,6.91,13.86,9.11,21.32Z"/>
  <path class="cls-16" d="M319.01,251c.27,0,.54,0,.82,0,.39,9.02.58,18.04-1.02,26.99-.26,0-.53,0-.79,0,.12-9.01,1.57-17.97,1-27Z"/>
  <path class="cls-7" d="M318.01,278c.26,0,.53,0,.79,0-1.27,6.46-1.72,13.12-4.7,19.15.25-6.6,2.01-12.89,3.91-19.14Z"/>
  <path class="cls-2" d="M233.92,419.76c-6.06,4.11-12.87,5.8-20.09,6.15,6.7-2.05,13.39-4.1,20.09-6.15Z"/>
  <path class="cls-16" d="M227,605.99c0,.28,0,.57,0,.85-6.33.99-12.65,1.99-18.98,2.98.17-.85.52-1.7,1.48-1.71,5.92-.02,11.55-2.4,17.5-2.12Z"/>
  <path class="cls-20" d="M127,601.99c0,.28,0,.57,0,.85-5.5-1.53-10.96-3.18-16.07-5.81.33-.02.67-.04,1-.06,5.26.97,10.29,2.61,15.06,5.03Z"/>
  <path class="cls-5" d="M173.01,610.84c0-.27,0-.55,0-.82,7.69.01,15.37.02,23.05.04-4.47,2-9.18.6-13.77.91-3.08.2-6.19-.07-9.29-.12Z"/>
  <path class="cls-2" d="M248.98,413.35c-4.15,4.29-9.4,6.01-15.17,6.51,5.06-2.17,10.12-4.34,15.17-6.51Z"/>
  <path class="cls-5" d="M195.98,139.17c0,.27,0,.54,0,.82-6.64-.47-13.35,1.04-19.94-.81,6.64,0,13.28,0,19.93-.01Z"/>
  <path class="cls-15" d="M315.05,572.16c2.71-3.91,6.69-5.82,11.1-7.06-3.36,2.89-7.1,5.18-11.1,7.06Z"/>
  <path class="cls-20" d="M148.12,429.93c-4.5.19-9,.31-13.1-2.06,4.43.27,8.87.46,13.1,2.06Z"/>
  <path class="cls-15" d="M285.03,587.92c2.65-3.13,6.17-4.42,10.12-4.81-3.13,2.11-6.48,3.77-10.12,4.81Z"/>
  <path class="cls-7" d="M374.8,620.34c-.13-3.87,1.73-6.68,4.75-8.87-1.58,2.96-3.17,5.91-4.75,8.87Z"/>
  <path class="cls-7" d="M379.56,611.32c.02-3.28.29-6.44,3.68-8.21-.68,2.98-2.18,5.59-3.68,8.21Z"/>
  <path class="cls-13" d="M241.26,147.56c-3.81.6-7.19-.15-9.87-3.13,3.29,1.04,6.58,2.08,9.87,3.13Z"/>
  <path class="cls-21" d="M309.59,684.55c1.58-3.12,4.26-4.34,7.62-4.39-2.2,2.06-5.01,3.04-7.62,4.39Z"/>
  <path class="cls-17" d="M192.01,483.84c2.02-3.66,5.4-1.14,8.09-1.78-2.49,1.51-5.38,1.24-8.09,1.78Z"/>
  <path class="cls-20" d="M111.13,420.92c-3.07-.41-6.41-.23-8.1-3.69,2.73,1.16,5.8,1.57,8.1,3.69Z"/>
  <path class="cls-16" d="M92.88,470.07c2.69.28,5.55.15,7.06,3.11-2.54-.62-4.98-1.45-7.06-3.11Z"/>
  <path class="cls-16" d="M107,475c0,.3,0,.6,0,.9-2.53-.57-5.15-.89-7.16-2.8,2.71-.57,4.91.74,7.16,1.9Z"/>
  <path class="cls-7" d="M66.88,200.66c-.15,2.88-1.26,5.13-4.1,6.24.9-2.38,2.28-4.46,4.1-6.24Z"/>
  <path class="cls-16" d="M93.75,589.22c2.71-.3,5,.23,6.13,3.07-2.24-.63-4.38-1.45-6.13-3.07Z"/>
  <path class="cls-16" d="M101.83,593.11c2.71.24,5.62.06,7.08,3.13-2.5-.72-4.98-1.5-7.08-3.13Z"/>
  <path class="cls-14" d="M100.53,386.1c2.84-.34,4.87.9,6.34,3.24-2.34-.63-4.5-1.63-6.34-3.24Z"/>
  <path class="cls-13" d="M247.22,149.82c-2.29.08-4.85.8-5.81-2.37,1.96.74,4.12.97,5.81,2.37Z"/>
  <path class="cls-7" d="M292.97,343c-.75-2.82,1.3-3.83,3.19-4.94-1.06,1.65-2.13,3.29-3.19,4.94Z"/>
  <path class="cls-7" d="M296.09,338.14c-.36-2.54.74-4.18,3.08-5.08-.49,2.02-1.74,3.57-3.08,5.08Z"/>
  <path class="cls-6" d="M258.81,375.51c-.14-3.24,2.35-2.99,4.41-3.32-1.47,1.11-2.94,2.21-4.41,3.32Z"/>
  <path class="cls-6" d="M251.07,380.17c.88-2.34,2.54-3.42,5.05-3.09-1.43,1.45-3.11,2.49-5.05,3.09Z"/>
  <path class="cls-7" d="M299.11,333.15c-.42-2.53.76-4.13,2.98-5.13-.52,1.98-1.56,3.66-2.98,5.13Z"/>
  <path class="cls-15" d="M308.08,576.2c.94-2.35,2.84-3.03,5.17-2.99-1.44,1.48-3.19,2.43-5.17,2.99Z"/>
  <path class="cls-7" d="M303.26,196.87c-2.47-.79-2.96-2.82-3.15-5.03,1.58,1.35,2.49,3.11,3.15,5.03Z"/>
  <path class="cls-16" d="M85.78,584.15c2.25-.18,3.41,1.15,4.16,3.02-1.79-.45-3.35-1.23-4.16-3.02Z"/>
  <path class="cls-12" d="M57.47,347.58c3.12.03,3,2.5,3.44,4.56-1.15-1.52-2.3-3.04-3.44-4.56Z"/>
  <path class="cls-6" d="M272.09,365.2c.92-1.86,1.79-3.78,4.39-3.61-1.46,1.21-2.92,2.41-4.39,3.61Z"/>
  <path class="cls-21" d="M317.12,680.25c.83-2.44,2.83-2.97,5.07-3.11-1.37,1.56-3.12,2.5-5.07,3.11Z"/>
  <path class="cls-13" d="M251.78,151.96c-1.92.02-3.71-.24-4.67-2.23,1.73.37,3.53.63,4.67,2.23Z"/>
  <path class="cls-14" d="M88.22,175.49c.4,2.68-1.32,3.25-3.42,3.45,1.14-1.15,2.28-2.3,3.42-3.45Z"/>
  <path class="cls-14" d="M108.82,390.12c2.08-.16,4.01,0,5.05,2.21-1.81-.44-3.62-.88-5.05-2.21Z"/>
  <path class="cls-6" d="M263.15,372.26c.6-2.02,1.79-3.27,4.06-3.09-1.07,1.4-2.4,2.47-4.06,3.09Z"/>
  <path class="cls-18" d="M91.31,537.48c-1.99.84-3.52.57-4.18-1.76,1.39.59,2.78,1.17,4.18,1.76Z"/>
  <path class="cls-7" d="M305.54,200.42c-2.88.14-2.47-1.84-2.36-3.64.79,1.21,1.57,2.43,2.36,3.64Z"/>
  <path class="cls-14" d="M91.92,172.46c-.56,1.64-1.04,3.37-3.41,2.77,1.14-.92,2.27-1.85,3.41-2.77Z"/>
  <path class="cls-11" d="M387.93,582.81c.02.39.05.79.07,1.18-.6,1.39-1.64,2.08-3.17,1.98,1.03-1.05,2.07-2.11,3.1-3.16Z"/>
  <path class="cls-15" d="M297.04,582.14c.65-2.06,2.27-2.23,4.06-2.08-1.1,1.18-2.51,1.76-4.06,2.08Z"/>
  <path class="cls-7" d="M295.2,184.86c-2.01.22-2.24-1.05-2.15-2.58,1.3.38,1.68,1.52,2.15,2.58Z"/>
  <path class="cls-11" d="M332.5,378.22c-2.14.33-3.09-.53-2.69-2.72.9.9,1.79,1.81,2.69,2.72Z"/>
  <path class="cls-21" d="M305.24,686.41c.74-1.96,2.09-2.56,4.04-1.8-1.35.6-2.69,1.2-4.04,1.8Z"/>
  <path class="cls-7" d="M62.86,206.81c.19,1.57.27,3.07-1.94,3.15.36-1.23.8-2.41,1.94-3.15Z"/>
  <path class="cls-21" d="M328.07,673.18c.69-1.4,1.13-3.16,3.36-2.32-1.12.77-2.24,1.55-3.36,2.32Z"/>
  <path class="cls-7" d="M370.04,627.59c-.09-1.7.25-3.11,2.25-3.45-.3,1.44-1.05,2.59-2.25,3.45Z"/>
  <path class="cls-7" d="M372.19,624.23c.11-1.62-.1-3.46,2.36-3.48-.79,1.16-1.57,2.32-2.36,3.48Z"/>
  <path class="cls-7" d="M302.05,328.08c-.13-1.78.03-3.4,2.1-4.03-.27,1.57-.96,2.92-2.1,4.03Z"/>
  <path class="cls-18" d="M83.18,533.87c-1.85.18-3.61.19-3.96-2.26,1.32.75,2.64,1.51,3.96,2.26Z"/>
  <path class="cls-16" d="M81.53,464.11c1.71.15,3.66-.08,3.84,2.46-1.28-.82-2.56-1.64-3.84-2.46Z"/>
  <path class="cls-6" d="M269.58,367.52c-.4-2.17.99-2.39,2.6-2.39-.86.8-1.73,1.59-2.6,2.39Z"/>
  <path class="cls-11" d="M316.48,362.21c-1,.6-1.99.6-2.99,0,1-1.76,2-1.5,2.99,0Z"/>
  <path class="cls-18" d="M79.3,531.7c-1.71.44-2.74-.25-3.23-1.89,1.34.18,2.35.92,3.23,1.89Z"/>
  <path class="cls-7" d="M298.18,188.92c-1.58-.4-2.19-1.48-2.12-3.03,1.15.7,1.68,1.83,2.12,3.03Z"/>
  <path class="cls-7" d="M300.19,191.92c-1.6-.41-2.22-1.49-2.08-3.08,1.19.69,1.76,1.8,2.08,3.08Z"/>
  <path class="cls-8" d="M353.01,545.01c-.8-2.26,1.02-1.71,2.1-1.96-.7.65-1.4,1.3-2.1,1.96Z"/>
  <path class="cls-12" d="M63.5,355.78c2.35-.67,2.39.84,2.31,2.46-.77-.82-1.54-1.64-2.31-2.46Z"/>
  <path class="cls-15" d="M326.06,565.18c.42-1.59,1.49-2.23,3.09-2.08-.68,1.22-1.81,1.75-3.09,2.08Z"/>
  <path class="cls-12" d="M55.92,345.04c1.56.13,2.27.79,1.44,2.37-.48-.79-.96-1.58-1.44-2.37Z"/>
  <path class="cls-15" d="M301.03,580.11c.58-1.55,1.59-2.3,3.29-1.76-.92.92-1.97,1.59-3.29,1.76Z"/>
  <path class="cls-16" d="M84.97,581c1.27.8,1.03,2.02.87,3.21-1.13-.77-1.2-2.08-1.63-3.21.25,0,.5,0,.76,0Z"/>
  <path class="cls-21" d="M322.1,677.22c.4-1.65,1.48-2.27,3.11-2.06-.71,1.18-1.77,1.83-3.11,2.06Z"/>
  <path class="cls-11" d="M326.13,371.93c-1.44.07-2.12-.62-2.07-2.05.69.68,1.38,1.37,2.07,2.05Z"/>
  <path class="cls-11" d="M323.14,368.92c-1.47.07-2.14-.67-2.1-2.1.7.7,1.4,1.4,2.1,2.1Z"/>
  <path class="cls-12" d="M61.73,353.15c1.21.3,2.25.7,1.48,2.28-.49-.76-.99-1.52-1.48-2.28Z"/>
  <path class="cls-18" d="M76.17,529.89c-1.22.14-2.02-.25-2.11-1.6.96.19,1.68.71,2.11,1.6Z"/>
  <path class="cls-16" d="M111.94,596.96c-.33.02-.67.04-1,.06-.82-.02-1.68.03-2.14-.88,1.14-.09,2.35-.45,3.14.82Z"/>
  <path class="cls-24" d="M272.03,593.15c.7-1.42,1.96-1.1,3.15-1.03-.74,1.3-2.09.72-3.15,1.03Z"/>
  <path class="cls-11" d="M379.94,590.89c.03,1.42-.65,2.11-2.08,2.04.69-.68,1.39-1.36,2.08-2.04Z"/>
  <path class="cls-8" d="M356.06,542.12c-.05-1.44.66-2.11,2.09-2.04-.7.68-1.39,1.36-2.09,2.04Z"/>
  <path class="cls-11" d="M381.93,588.87c.07,1.43-.63,2.1-2.04,2.07.68-.69,1.36-1.38,2.04-2.07Z"/>
  <path class="cls-8" d="M362.12,536.2c-.12-1.49.57-2.18,2.05-2.09-.68.7-1.37,1.4-2.05,2.09Z"/>
  <path class="cls-16" d="M90.83,469.11c.91-.07,1.76,0,2.14,1.03-.8-.17-1.75,0-2.14-1.03Z"/>
  <path class="cls-15" d="M295.06,583.19c.33-1.04,1.17-1.13,2.07-1.11-.4.91-1.27.94-2.07,1.11Z"/>
  <path class="cls-14" d="M80.94,182.88c-.07.91-.03,1.93-1.47,1.38.49-.46.98-.92,1.47-1.38Z"/>
  <path class="cls-12" d="M54.77,343.09c1.06.27,1.18,1.1,1.18,1.99-.85-.39-1.01-1.2-1.18-1.99Z"/>
  <path class="cls-16" d="M88.82,468.12c.93-.08,1.78.02,2.12,1.09-.8-.18-1.73-.1-2.12-1.09Z"/>
  <path class="cls-7" d="M60.95,209.91c.02.9-.11,1.71-1.13,2.03.15-.8.22-1.65,1.13-2.03Z"/>
  <path class="cls-12" d="M53.61,341.22c1.23.14,1.34.99,1.25,1.97-.9-.35-1.02-1.19-1.25-1.97Z"/>
  <path class="cls-16" d="M89.84,587.1c.94-.06,1.78.06,2.07,1.17-.79-.2-1.71-.19-2.07-1.17Z"/>
  <path class="cls-16" d="M91.78,588.16c.98-.12,1.84-.02,2.09,1.17-.79-.22-1.7-.22-2.09-1.17Z"/>
  <path class="cls-24" d="M275.05,592.21c.48-1.17,1.47-1.14,2.49-1.05-.56.99-1.58.89-2.49,1.05Z"/>
  <path class="cls-16" d="M99.76,592.19c.95-.15,1.81-.09,2.18,1.01-.81-.16-1.74-.05-2.18-1.01Z"/>
  <path class="cls-16" d="M86.85,467.1c.93-.06,1.77.04,2.09,1.11-.8-.18-1.72-.13-2.09-1.11Z"/>
  <path class="cls-11" d="M318.1,363.95c-.88-.1-1.94-.03-1.35-1.47.45.49.9.98,1.35,1.47Z"/>
  <path class="cls-21" d="M331.84,670.52c-.55-1.53.58-1.34,1.45-1.44-.48.48-.97.96-1.45,1.44Z"/>
  <path class="cls-14" d="M106.73,389.23c.97-.19,1.83-.14,2.21.99-.8-.2-1.74-.06-2.21-.99Z"/>
  <path class="cls-21" d="M326.44,674.52c-.15-1.35.74-1.43,1.71-1.42-.57.47-1.14.94-1.71,1.42Z"/>
  <path class="cls-6" d="M249.12,381.27c.26-1.11,1.09-1.23,2.03-1.16-.32,1.02-1.24.98-2.03,1.16Z"/>
  <path class="cls-12" d="M66.6,359.26c1.15.01,1.31.82,1.38,1.71-.46-.57-.92-1.14-1.38-1.71Z"/>
  <path class="cls-21" d="M303.11,687.27c.36-1.19,1.21-1.22,2.2-.93-.73.31-1.46.62-2.2.93Z"/>
  <path class="cls-15" d="M330.35,562.49c-.04-1.28.81-1.42,1.79-1.4-.6.47-1.19.94-1.79,1.4Z"/>
  <path class="cls-18" d="M85.18,534.88c-.94.09-1.78,0-2.11-1.09.8.17,1.73.11,2.11,1.09Z"/>
  <path class="cls-11" d="M329.51,375.19c-1.43.63-1.35-.44-1.46-1.3.49.43.97.86,1.46,1.3Z"/>
  <path class="cls-15" d="M313.14,573.31c.21-1.14,1.05-1.27,2-1.23-.34.94-1.2,1.02-2,1.23Z"/>
  <path class="cls-15" d="M306.17,577.35c.2-1.17,1.04-1.3,2-1.23-.36.92-1.22,1.01-2,1.23Z"/>
  <path class="cls-15" d="M304.25,578.44c.14-1.3,1-1.38,2.03-1.19-.67.4-1.35.79-2.03,1.19Z"/>
  <path class="cls-18" d="M87.23,535.81c-.96.16-1.8.07-2.17-1.02.79.19,1.74.05,2.17,1.02Z"/>
  <path class="cls-14" d="M84.97,581c-.25,0-.5,0-.76,0-.18-.61-.37-1.23-.55-1.84,1.11.14,1.31.92,1.31,1.85Z"/>
  <path class="cls-14" d="M82.95,180.85c-.36.37-.72.74-1.08,1.12.36-.37.72-.74,1.08-1.12Z"/>
  <path class="cls-14" d="M81.96,181.87c-.36.37-.73.73-1.1,1.1.36-.37.73-.73,1.1-1.1Z"/>
  <path class="cls-14" d="M79.14,184.67c.15.2.3.4.45.6-.21-.11-.41-.23-.62-.34,0,0,.17-.26.17-.26Z"/>
  <path class="cls-7" d="M296.11,185.96c-.33-.39-.67-.78-1-1.18.33.39.67.78,1,1.18Z"/>
  <path class="cls-6" d="M256.06,377.13c.42-.3.84-.6,1.26-.9-.42.3-.84.6-1.26.9Z"/>
  <path class="cls-11" d="M333.44,379.25c-.8.35-1.05.12-.73-.71.25.23.49.47.73.71Z"/>
  <path class="cls-12" d="M65.73,358.15c.67.13,1.01.53,1,1.22-.33-.4-.67-.81-1-1.22Z"/>
  <path class="cls-8" d="M359.06,539.19c.38-.37.76-.74,1.15-1.12-.38.37-.76.74-1.15,1.12Z"/>
  <path class="cls-8" d="M358.05,540.16c.38-.37.76-.73,1.14-1.1-.38.37-.76.73-1.14,1.1Z"/>
  <path class="cls-8" d="M355.03,543.12c.37-.36.73-.73,1.1-1.09-.37.36-.73.73-1.1,1.09Z"/>
  <path class="cls-11" d="M377.95,592.85c-.37.37-.73.73-1.1,1.1.37-.37.73-.73,1.1-1.1Z"/>
  <path class="cls-11" d="M376.95,593.85c-.38.36-.76.72-1.14,1.08.38-.36.76-.72,1.14-1.08Z"/>
  <path class="cls-11" d="M375.94,594.81c-.41.37-.83.75-1.24,1.12.41-.37.83-.75,1.24-1.12Z"/>
  <path class="cls-15" d="M332.04,561.15c.47-.35.93-.7,1.4-1.05-.47.35-.93.7-1.4,1.05Z"/>
  <path class="cls-11" d="M313.13,362.7c.16.19.31.38.47.57-.21-.1-.42-.2-.62-.29,0,0,.15-.28.15-.28Z"/>
  <path class="cls-8" d="M361.08,537.21c.38-.38.75-.76,1.13-1.14-.38.38-.76.76-1.13,1.14Z"/>
  <path class="cls-12" d="M60.85,352.06c.33.4.66.8,1,1.2-.33-.4-.66-.8-1-1.2Z"/>
  <path class="cls-6" d="M257.23,376.34c.13-.68.44-.99,1.12-.54-.37.18-.74.36-1.12.54Z"/>
  <path class="cls-11" d="M319.16,364.97c-.38-.36-.76-.72-1.14-1.08.38.36.76.72,1.14,1.08Z"/>
  <path class="cls-6" d="M268.35,368.41c0-.76.34-1.08,1.1-.83-.37.28-.73.55-1.1.83Z"/>
  <path class="cls-8" d="M360.08,538.21c.38-.38.76-.76,1.14-1.14-.38.38-.76.76-1.14,1.14Z"/>
  <path class="cls-8" d="M364.08,534.19c.27-.38.54-.75.8-1.13.16.68-.28.94-.8,1.13Z"/>
  <path class="cls-6" d="M267.14,369.24c.16-.66.56-.98,1.25-.9-.42.3-.83.6-1.25.9Z"/>
  <path class="cls-11" d="M324.13,369.96c-.36-.37-.72-.74-1.08-1.12.36.37.72.74,1.08,1.12Z"/>
  <path class="cls-14" d="M83.95,179.79c-.37.39-.74.78-1.11,1.17.37-.39.74-.78,1.11-1.17Z"/>
  <path class="cls-11" d="M328.12,373.97c-.36-.37-.72-.73-1.08-1.1.36.37.72.73,1.08,1.1Z"/>
  <path class="cls-11" d="M327.13,372.96c-.36-.37-.72-.74-1.08-1.11.36.37.72.74,1.08,1.11Z"/>
  <path class="cls-15" d="M329.06,563.17c.22-.64.66-.92,1.34-.81-.45.27-.89.54-1.34.81Z"/>
  <path class="cls-21" d="M325.12,675.24c.19-.67.6-.96,1.3-.77-.43.26-.87.52-1.3.77Z"/>
  <path class="cls-6" d="M276.61,361.45c-.19-.75.02-1.04.79-.67-.26.23-.52.45-.79.67Z"/>
  <path class="cls-6" d="M277.85,360.32c-.13-.2-.27-.4-.4-.6.19.13.38.26.57.38,0,0-.17.22-.17.22Z"/>
  <path class="cls-11" d="M334.03,379.93c-.21.11-.42.23-.63.34.15-.2.3-.4.45-.61,0,0,.18.27.18.27Z"/>
  <path class="cls-11" d="M382.97,587.84c-.37.38-.74.75-1.1,1.13.37-.38.74-.75,1.1-1.13Z"/>
  <path class="cls-16" d="M85.66,466.66c.65-.39,1.03-.11,1.29.51-.43-.17-.86-.34-1.29-.51Z"/>
  <path class="cls-19" d="M186.34,320.09c3.28-2.6,5.97-5.8,9.55-8.18,3.93-2.61,7.26-3.8,11.18-.67,3.12,2.49,4.25,8.11,2.13,12.15-2.28,4.35-4.62,8.75-9.18,11.29-1.59-.02-2.37,1.13-3.18,2.22,0,0,.06-.06.06-.06-.77.46-1.54.91-2.3,1.37,0,0-.35.26-.35.26-1.13.81-2.27,1.63-3.4,2.44,0,0,.09-.08.09-.08-9.88,4.97-20.11,8.61-31.24,9.78-7.74.81-15.11-1.28-22.68-1.74,0,0,.1.09.1.09-.18-.51-.42-.95-1.09-.78-4.48.6-7.48-2.65-11.07-4.31-11.99-5.54-21.28-13.97-27.32-25.84-1.58-3.1-3.17-6.18-2.55-9.85,1.07-1.66,2.14-3.32,3.21-4.99,0,0-.12.13-.12.13,3.87-2.07,7.71-4.45,11.98-.86.06.16.16.3.31.39.97,1.88,1.66,3.93,3.27,5.43,0,0-.09-.08-.09-.08.19.8.3,1.64,1.24,1.96,0,0-.07-.08-.07-.08.3.42.6.85.9,1.27,0,0-.1-.07-.1-.07.26.67.29,1.55,1.34,1.52,2.39,2.41,4.78,4.81,7.16,7.22,1.02,1.11,2.22,1.94,3.7,2.32,0,0-.09-.1-.09-.1,15.13,10.49,40.65,10.45,55.45-.09,0,0-.1.09-.1.09,1.43-.19,2.44-1.01,3.26-2.13Z"/>
  <path class="cls-19" d="M103.51,219.15c4.83-1.81,9.56-2.29,14.02,1,.46.36.92.73,1.37,1.09,0,0-.15-.13-.15-.13.38.36.77.73,1.15,1.09,0,0-.12-.12-.12-.12,1.25,2.08,2.49,4.16,3.74,6.24,0,0-.04.03-.04.03,2.96,8.47,2.76,17.02.68,25.63-1.88,9.67-7.71,15.76-16.79,19.3-3.4,1.33-5.88.2-8.55-1.33-.43-1.34-1.83-1.45-2.76-2.16-.62-.62-1.24-1.23-1.86-1.85-1.75-3.13-3.42-6.24-4.27-9.82-2.13-8.98-.49-17.55,2.27-26.06,0,0-.08.1-.08.1.99-.39.89-1.32,1.06-2.12,0,0-.08.1-.08.1.98-.34.99-1.25,1.18-2.04,0,0-.1.12-.1.12.46-.55.92-1.09,1.37-1.64,0,0,.09-.15.09-.15.52-.79,1.04-1.57,1.56-2.36,0,0-.13.11-.13.11.38-.39.75-.77,1.13-1.15.28-.28.56-.55.84-.83.39-.37.78-.74,1.18-1.11,0,0-.14.15-.14.15.79-.19,1.61-.34,1.98-1.21,0,0-.07.04-.07.04.5-.31,1-.62,1.5-.94Z"/>
  <path class="cls-19" d="M222.8,275.95c-.28.29-.56.58-.84.86-.71.69-1.42,1.38-2.12,2.08,0,0,.07-.07.07-.07-1.2.42-2.35.9-3.12,2,0,0,.09-.09.09-.09-1.02.27-2.22.11-2.87,1.24-5.53,2.18-8.75,1.15-13.37-4.08-1.85-2.09-2.89-4.63-4.25-7-2.05-6.17-1.03-12.59-1.53-18.89.13-.28.2-.57.18-.87,2.03-2.67,2.24-5.99,3.27-9.02,0,0-.11.14-.12.14.94-.43.84-1.38,1.06-2.16,0,0-.1.12-.1.12.95-.38.94-1.3,1.16-2.09,0,0-.12.13-.12.13.76-1.05,1.51-2.09,2.27-3.14.2-.29.41-.58.61-.86.7-.73,1.4-1.46,2.1-2.2.29-.28.58-.56.88-.84.4-.36.8-.72,1.2-1.08,0,0-.12.13-.12.13,4.62-2.47,9.38-3.84,14.56-1.78,0,0-.08-.1-.08-.1.45.25.9.49,1.35.74,0,0-.08-.06-.08-.06.95.77,1.91,1.54,2.86,2.31,0,0-.13-.12-.12-.12.75.98,1.49,1.96,2.24,2.94,0,0-.07-.07-.07-.07.17.81.18,1.71,1.12,2.12,3.83,11.51,2.5,22.71-2.08,33.7,0,0,.07-.09.07-.09-.92.37-1,1.23-1.19,2.02,0,0,.1-.11.1-.11-1.08.78-1.75,1.83-2.07,3.11,0,0,.14-.12.14-.12-.36.4-.72.8-1.08,1.2Z"/>
  <path class="cls-13" d="M183.19,322.13c-14.79,10.54-40.31,10.58-55.45.09,2.82-.2,5.08,1.49,7.46,2.49,14.87,6.23,29.42,4.81,43.81-1.44,1.39-.6,2.58-1.46,4.18-1.13Z"/>
  <path class="cls-2" d="M137.02,348.86c7.56.46,14.93,2.56,22.68,1.74,11.13-1.17,21.36-4.81,31.24-9.78-3.75,4.35-9.06,5.99-14.18,7.67-11.36,3.75-23.03,4.66-34.85,2.44-1.74-.33-3.65-.47-4.89-2.08Z"/>
  <path class="cls-24" d="M226.82,269.94c4.58-10.99,5.91-22.19,2.08-33.7.03-.42.07-.84.1-1.26,5.03,7.95,4.5,16.5,2.4,25.09-.86,3.52-.69,7.69-4.58,9.87Z"/>
  <path class="cls-2" d="M92.19,232.07c-2.76,8.51-4.4,17.08-2.27,26.06.85,3.58,2.52,6.69,4.27,9.82-3.99-1.29-4.41-5.04-5.16-8.21-1.84-7.77-1.72-15.64.38-23.38.44-1.62.47-3.76,2.77-4.29Z"/>
  <path class="cls-13" d="M124.17,253.98c2.08-8.6,2.29-17.16-.68-25.63,1.25-.04,1.76.9,2.02,1.82,2.17,7.58,2.22,15.2.19,22.81-.12.44-1.01.67-1.54,1Z"/>
  <path class="cls-12" d="M221.69,228.49c-5.18-2.06-9.94-.69-14.56,1.78,4.22-5.16,10.56-5.93,14.56-1.78Z"/>
  <path class="cls-6" d="M110.17,302.45c-4.27-3.58-8.12-1.21-11.98.86,1.19-3.87,4.64-4.02,7.67-4.16,1.79-.08,4.64-.07,4.31,3.3Z"/>
  <path class="cls-14" d="M194.85,252c.5,6.3-.53,12.72,1.53,18.89-1.82-.7-2.38-2.35-2.3-3.95.26-4.98-1.12-10.05.77-14.94Z"/>
  <path class="cls-14" d="M198.31,242.11c-1.04,3.03-1.24,6.35-3.27,9.02.12-3.36.28-6.7,3.27-9.02Z"/>
  <path class="cls-13" d="M123.52,228.33c-1.25-2.08-2.49-4.16-3.74-6.24,2.46,1.35,4.91,2.71,3.74,6.24Z"/>
  <path class="cls-6" d="M113.74,308.27c-1.61-1.49-2.31-3.54-3.27-5.43,3.02.65,3.02,3.11,3.27,5.43Z"/>
  <path class="cls-6" d="M98.31,303.19c-1.07,1.66-2.14,3.32-3.21,4.99-.3-2.54.59-4.32,3.21-4.99Z"/>
  <path class="cls-13" d="M127.83,322.32c-1.48-.38-2.68-1.21-3.7-2.32,1.72,0,3.37.1,3.7,2.32Z"/>
  <path class="cls-24" d="M214,281.97c.65-1.13,1.85-.96,2.87-1.24-.54,1.38-.96,3.04-2.87,1.24Z"/>
  <path class="cls-24" d="M216.78,280.83c.76-1.1,1.92-1.58,3.12-2,.02,2.31-1.51,2.22-3.12,2Z"/>
  <path class="cls-2" d="M190.85,340.9c1.13-.81,2.27-1.63,3.4-2.44.03,2.44-1.85,2.21-3.4,2.44Z"/>
  <path class="cls-12" d="M227.85,234.19c-.74-.98-1.49-1.96-2.24-2.94,1.86.13,2.38,1.28,2.24,2.94Z"/>
  <path class="cls-2" d="M196.84,336.9c.82-1.09,1.59-2.24,3.18-2.22-.45,1.61-1.5,2.37-3.18,2.22Z"/>
  <path class="cls-14" d="M202.46,235.1c-.76,1.05-1.52,2.09-2.27,3.14-.25-1.78.49-2.83,2.27-3.14Z"/>
  <path class="cls-2" d="M96.06,269.79c.93.71,2.33.82,2.76,2.16-1.57.11-2.87-.12-2.76-2.16Z"/>
  <path class="cls-24" d="M223.74,274.87c.32-1.28.99-2.33,2.07-3.11.27,1.67-.35,2.76-2.07,3.11Z"/>
  <path class="cls-2" d="M194.6,338.2c.77-.46,1.53-.91,2.3-1.37-.09,1.6-.65,2.41-2.3,1.37Z"/>
  <path class="cls-13" d="M186.34,320.09c-.81,1.12-1.83,1.94-3.26,2.13.42-1.72,1.63-2.25,3.26-2.13Z"/>
  <path class="cls-12" d="M225.74,231.38c-.95-.77-1.91-1.54-2.86-2.31,1.6-.03,2.76.48,2.86,2.31Z"/>
  <path class="cls-24" d="M219.83,278.89c.71-.69,1.42-1.38,2.12-2.08.03,1.45-.64,2.18-2.12,2.08Z"/>
  <path class="cls-12" d="M205.17,232.04c-.7.73-1.4,1.46-2.1,2.2-.07-1.47.61-2.23,2.1-2.2Z"/>
  <path class="cls-2" d="M97.21,224.09c-.52.79-1.04,1.57-1.56,2.36-.58-1.52.39-2.01,1.56-2.36Z"/>
  <path class="cls-24" d="M225.71,271.87c.2-.79.27-1.66,1.19-2.02.06.95-.06,1.78-1.19,2.02Z"/>
  <path class="cls-2" d="M102.09,220.05c-.38.87-1.19,1.02-1.98,1.21.25-1.08,1.07-1.21,1.98-1.21Z"/>
  <path class="cls-2" d="M95.55,226.59c-.46.55-.92,1.09-1.37,1.64-.06-.98-.09-1.94,1.37-1.64Z"/>
  <path class="cls-2" d="M94.28,228.11c-.2.79-.2,1.7-1.18,2.04-.06-.95.07-1.77,1.18-2.04Z"/>
  <path class="cls-2" d="M93.18,230.05c-.18.79-.07,1.73-1.06,2.12-.08-.92.01-1.76,1.06-2.12Z"/>
  <path class="cls-12" d="M229,234.98c-.03.42-.07.84-.1,1.26-.94-.41-.95-1.3-1.12-2.12.41.29.81.57,1.22.86Z"/>
  <path class="cls-14" d="M200.3,238.11c-.21.79-.21,1.71-1.16,2.09-.11-.97,0-1.82,1.16-2.09Z"/>
  <path class="cls-14" d="M199.25,240.08c-.22.78-.11,1.73-1.06,2.16-.15-.97-.08-1.82,1.06-2.16Z"/>
  <path class="cls-6" d="M114.9,310.15c-.94-.32-1.05-1.16-1.24-1.96,1.17.17,1.29,1.01,1.24,1.96Z"/>
  <path class="cls-6" d="M116.97,312.78c-1.05.03-1.08-.85-1.34-1.52,1.04-.02,1.28.67,1.34,1.52Z"/>
  <path class="cls-2" d="M103.51,219.15c-.5.31-1,.62-1.5.94.5-.31,1-.62,1.5-.94Z"/>
  <path class="cls-2" d="M100.24,221.11c-.39.37-.78.74-1.18,1.11.39-.37.78-.74,1.18-1.11Z"/>
  <path class="cls-13" d="M119.91,222.21c-.38-.36-.77-.73-1.15-1.09.38.36.77.73,1.15,1.09Z"/>
  <path class="cls-12" d="M222.96,229.12c-.45-.25-.9-.49-1.35-.74.65-.13,1.09.14,1.35.74Z"/>
  <path class="cls-12" d="M207.25,230.13c-.4.36-.8.72-1.2,1.08.4-.36.8-.72,1.2-1.08Z"/>
  <path class="cls-2" d="M98.22,223.05c-.38.38-.75.77-1.13,1.15.38-.38.75-.77,1.13-1.15Z"/>
  <path class="cls-13" d="M118.91,221.25c-.46-.36-.92-.73-1.37-1.09.46.36.92.73,1.37,1.09Z"/>
  <path class="cls-24" d="M222.8,275.95c.36-.4.72-.8,1.08-1.2-.36.4-.72.8-1.08,1.2Z"/>
  <path class="cls-6" d="M115.73,311.33c-.3-.42-.6-.84-.9-1.27.3.42.6.84.9,1.27Z"/>
  <path class="cls-2" d="M136.03,348.17c.67-.17.91.27,1.09.78-.36-.26-.72-.52-1.09-.78Z"/>
</svg>